<mxfile host="65bd71144e">
    <diagram id="QPjWMc--3jNfaQT-0KqA" name="Page-1">
        <mxGraphModel dx="3893" dy="1895" grid="1" gridSize="10" guides="1" tooltips="1" connect="1" arrows="1" fold="1" page="1" pageScale="1" pageWidth="827" pageHeight="1169" background="#F4F1DE" math="0" shadow="0">
            <root>
                <mxCell id="0"/>
                <mxCell id="1" parent="0"/>
                <mxCell id="64" value="" style="rounded=0;whiteSpace=wrap;html=1;sketch=0;fontColor=#393C56;strokeColor=#999999;fillColor=#FFFFFF;" vertex="1" parent="1">
                    <mxGeometry x="-50" y="630" width="970" height="860" as="geometry"/>
                </mxCell>
                <mxCell id="24" value="" style="rounded=0;whiteSpace=wrap;html=1;sketch=0;fillColor=none;strokeColor=#999999;" vertex="1" parent="1">
                    <mxGeometry x="440" y="920" width="250" height="280" as="geometry"/>
                </mxCell>
                <mxCell id="23" value="" style="rounded=0;whiteSpace=wrap;html=1;sketch=0;fillColor=none;strokeColor=#999999;" vertex="1" parent="1">
                    <mxGeometry x="190" y="920" width="235" height="280" as="geometry"/>
                </mxCell>
                <mxCell id="3" value="" style="rounded=1;arcSize=10;dashed=0;fillColor=none;gradientColor=none;strokeWidth=2;sketch=0;fontColor=#393C56;strokeColor=#999999;" vertex="1" parent="1">
                    <mxGeometry x="40" y="830" width="800" height="510" as="geometry"/>
                </mxCell>
                <mxCell id="4" value="" style="dashed=0;html=1;shape=mxgraph.aws3.cloud;fillColor=#F58536;gradientColor=none;dashed=0;rounded=0;sketch=0;fontColor=#393C56;strokeColor=#E07A5F;" vertex="1" parent="1">
                    <mxGeometry x="750" y="810" width="52" height="36" as="geometry"/>
                </mxCell>
                <mxCell id="7" value="" style="rounded=1;arcSize=10;dashed=0;fillColor=none;gradientColor=none;strokeWidth=2;sketch=0;fontColor=#393C56;strokeColor=#999999;" vertex="1" parent="1">
                    <mxGeometry x="160" y="880" width="560" height="350" as="geometry"/>
                </mxCell>
                <mxCell id="8" value="" style="dashed=0;html=1;shape=mxgraph.aws3.virtual_private_cloud;fillColor=#F58536;gradientColor=none;dashed=0;rounded=0;sketch=0;fontColor=#393C56;strokeColor=#999999;" vertex="1" parent="1">
                    <mxGeometry x="638" y="860" width="52" height="36" as="geometry"/>
                </mxCell>
                <mxCell id="9" value="" style="outlineConnect=0;dashed=0;verticalLabelPosition=bottom;verticalAlign=top;align=center;html=1;shape=mxgraph.aws3.rds;fillColor=#2E73B8;gradientColor=none;rounded=0;sketch=0;fontColor=#393C56;strokeColor=#999999;" vertex="1" parent="1">
                    <mxGeometry x="530" y="960" width="56" height="60" as="geometry"/>
                </mxCell>
                <mxCell id="10" value="" style="outlineConnect=0;dashed=0;verticalLabelPosition=bottom;verticalAlign=top;align=center;html=1;shape=mxgraph.aws3.elasticache;fillColor=#2E73B8;gradientColor=none;rounded=0;sketch=0;fontColor=#393C56;strokeColor=#999999;" vertex="1" parent="1">
                    <mxGeometry x="530" y="1082" width="57" height="70" as="geometry"/>
                </mxCell>
                <mxCell id="11" value="" style="outlineConnect=0;dashed=0;verticalLabelPosition=bottom;verticalAlign=top;align=center;html=1;shape=mxgraph.aws3.ecs;fillColor=#F58534;gradientColor=none;rounded=0;sketch=0;fontColor=#393C56;strokeColor=#999999;" vertex="1" parent="1">
                    <mxGeometry x="278" y="1082" width="59" height="60" as="geometry"/>
                </mxCell>
                <mxCell id="13" value="" style="outlineConnect=0;dashed=0;verticalLabelPosition=bottom;verticalAlign=top;align=center;html=1;shape=mxgraph.aws3.ecr_registry;fillColor=#F58534;gradientColor=none;rounded=0;sketch=0;fontColor=#393C56;strokeColor=#999999;" vertex="1" parent="1">
                    <mxGeometry x="80" y="965" width="49" height="50" as="geometry"/>
                </mxCell>
                <mxCell id="14" value="" style="outlineConnect=0;dashed=0;verticalLabelPosition=bottom;verticalAlign=top;align=center;html=1;shape=mxgraph.aws3.parameter_store;fillColor=#759C3E;gradientColor=none;rounded=0;sketch=0;fontColor=#393C56;strokeColor=#999999;" vertex="1" parent="1">
                    <mxGeometry x="80" y="1082" width="50" height="60" as="geometry"/>
                </mxCell>
                <mxCell id="15" value="" style="outlineConnect=0;dashed=0;verticalLabelPosition=bottom;verticalAlign=top;align=center;html=1;shape=mxgraph.aws3.ses;fillColor=#D9A741;gradientColor=none;rounded=0;sketch=0;fontColor=#393C56;strokeColor=#999999;" vertex="1" parent="1">
                    <mxGeometry x="398" y="1259" width="56" height="57" as="geometry"/>
                </mxCell>
                <mxCell id="16" value="" style="outlineConnect=0;dashed=0;verticalLabelPosition=bottom;verticalAlign=top;align=center;html=1;shape=mxgraph.aws3.s3;fillColor=#E05243;gradientColor=none;rounded=0;sketch=0;fontColor=#393C56;strokeColor=#999999;" vertex="1" parent="1">
                    <mxGeometry x="280" y="1250" width="60" height="66" as="geometry"/>
                </mxCell>
                <mxCell id="17" value="" style="shape=image;verticalLabelPosition=bottom;labelBackgroundColor=#ffffff;verticalAlign=top;aspect=fixed;imageAspect=0;image=data:image/png,iVBORw0KGgoAAAANSUhEUgAAAgAAAAIACAYAAAD0eNT6AAAABHNCSVQICAgIfAhkiAAAAAlwSFlzAAAQKQAAECkB9XjiDwAAABl0RVh0U29mdHdhcmUAd3d3Lmlua3NjYXBlLm9yZ5vuPBoAACAASURBVHic7d13uCVVlbDxt3M3NLmbDAKi0kQRRaIJRUVFxIQYEB1zxBnTZ0AdVBidkWGcMcyo6GAWHcEEGEYcQRAJkkRaBFFSk2mgc39/rNt0uOmcc6tqVXh/z7OeCw19zzq76uy9TtWuvUGSJEmSJEmSJEmSJEmSJEmSJDXDpOwEJPVtE2BLYANg5lDMGuGfR/qzdf8ZYNFQPNjHP6/5Z/cBtwB3lfaOJRXOAkCqh5nEoL5mbDXCn20JTE/KcTxLiEJg3bh5hD9blJSjpCEWAFI1NgDmAbsO/dyetQf5jfJSS3EPaxcHfwGuBq4a+nlfXmpSN1gASMXajNWD/K5r/PO2mUk10F9ZXRBctcY/35GZlNQmFgDSYLZm7YF+1c+5mUl1wALWLghW/bwpMympiSwApPHNBh4PHDgU+wIbp2akdd0NXAj8eiguABamZiTVnAWANNy2rB7sDwT2AqakZqR+LQcuY3VB8GvitoKkIRYA6rrJwJ6sPeBvn5qRyvIXVhcD/wdcDqxIzUhKZAGgrpkFHMDqwX5/Yoa+uuc+4HxWFwXnEesbSJ1gAaAu2Bx4NnA48DRgvdx0VFMPAOcAZwA/AG7LTUcqlwWA2moeMeA/l5jANzk3HTXMCmIi4feJguDq3HSk4lkAqC2mAAcRg/7hwM656ahl5hOFwBnE/IHluelIE2cBoCbbAHgGMeAfBmyam4464k7gR0Qx8BNctVANZQGgppkLvJAY9J9MfdfFVzcsAX5BFAPfJhYqkiQVZCpxL/97RIe70jBqGEuIc/S5xDkr1ZpXAFRnewDHAi8lZvJLTXEb8FXgS8R6A1LtWACobjYFjgZeCeyTm4pUiN8BpwJfI+YPSLVgAaA6mAI8nRj0DwdmpGYjlWMxMVfgVOAsfJJAySwAlGkXYtB/BbBVbipSpW4GvkIUA3/ITUVdZQGgqs0AXgb8HbBfci5SHfwG+C/gNOIqgVQJCwBVZWPgDcBbgS2Tc5Hq6BbgFOAzxPbGUqksAFS27YC3A68FZifnIjXBQuDzwMnAjcm5SFLf9iDucfrcvmEMFkuIz9AeSFIDPJlYJjW78zSMNsWPiM+WJNXKFGJ53t+S31EaRpvjt8RnbQrSBDkHQBMxi1ip7x3Aw5NzkbrkT8C/ECsNPpicixrKAkCD2ICY2PcWYnMeSTkWAP9GTBh0V0JJpZkGvBm4lfxLoYZhrI5bic/mNCSpQJOAo4D55Hd0hmGMHvOJz6pXdyVN2CHAReR3bIZh9B4XEZ9daVRWiRrN3sCJwKHZiUga2NnAe4BLshNR/UzOTkC1syOxj/nvcPCXmu5Q4rP8VeKzLT3EKwBaZQ7wfmK9/unJuUgq3hJin4ETgNuTc1ENuJiE1gfeDXwTeCKeE1JbTSF24Hw9MJW4MrA0NSOl8gpAd00ituT9CO7OJ3XRLcAHia2IVybnogQWAN20O/A54IDsRCSlOw94HXBFdiKqlpd7u2UW8Y3/y8AOualIqontgNcQ/cN5wLLcdFQVrwB0x6HEBKCdshORVFvXEROBz85OROXzMcD225x4BOgsHPwljW0noq/4KtF3qMW8BdBeqyb5fR/YNzkXSc2yB9F/3IGLCLWWtwDaaR4xye/g7EQkNd6viEmCV2cnomJ5BaBdZgLHA/+Nl/slFeNhxCTBGcD5OEmwNbwC0B6HEJP8HpGdiKTWupaYJPiz7EQ0cU4CbL6Nicf6foqDv6RyPYLoa75M9D1qMK8ANNvBwGnA9tmJSOqcvwAvI+YIqIGcA9BMU4EPAV8ANslNRVJHbQS8guiPfgWsyE1H/fIKQPPsRDyju192IpI05DfAS4mFhNQQzgFolpcBl+LgL6le9iP6ppdlJ6LeeQWgGTYkZvgfnZ2IJI3ja8STAvdmJ6KxWQDU3wHEJf8dkvOQpF5dT9wSOC85D43BSYD1NQX4AHAqsGluKpLUl42BVw798/8BK/NS0Wi8AlBPDyO+9R+YnYgkTdCviasBN2QnorU5CbB+jgIuw8FfUjscSPRpR2UnorVZANTHdOA/ga8Tz9dKUltsRPRt/0n0daoBbwHUwxbAd4kJf5LUZr8GjgRuy06k6ywA8j0G+B9gu+xEJKkiNwLPBS7JTqTLvAWQ68XEDFkHf0ldsh3R970wO5Eu8zHAHJOAE4BTgGnJuUhShmnAC4hx6H9zU+kmbwFUbwNiB7/DsxORpJr4HvBy4P7sRLrEAqBaOwFnALtlJyJJNfN7Yl7A9cl5dIZzAKrzFOBCHPwlaSR7Ar8FnpCdSFc4B6AabyJW9pudnYgk1dh6xI6CtwK/S86l9SwAyjUN+Cyxpr9XWyRpfFOA5wBzgbOBFbnptJdzAMozh1jc5+DsRCSpoX5OPClwV3YibWQBUI5tgXOAXbITkaSGuwJ4GnBLdiJtYwFQvJ2BnxI7+kmSJu5PwFPxCYFCeV+6WHsSq1s5+EtScR5O9K3zshNpEwuA4uxHrGa1RXIektRG2wDnAvtkJ9IWFgDFeCpx2X+T7EQkqcXmEBMDXSugABYAE3cE8ANg/exEJKkDNgR+AhyWnUjTWQBMzCuA7wAzshORpA6ZRWyj/uLsRJrMhYAG92bgc1hESVKGKcCRwM3Axcm5NJIFwGDeD3wCH6OUpEyTiFUDHwDOS86lcSwA+vdJ4H3ZSUiSHvI0YDoxQVA9sgDo3WTg88Slf0lSvRxM7B/w4+xEmsICoDeTgC8Cr8pORJI0qn2BLYknszQOC4DefAp4fXYSkqRxPZbYVvin2YnUnQXA+I4H3pOdhCSpZwcCS4jlgzUKC4CxvQ04MTsJSVLfDgFuAy7KTqSuLABGdwzwGXzUT5Ka6jBgPnB5diJ15OA2sucB38YCSZKabhmxYNCZ2YnUjQXAcE8lZpC6vK8ktcMi4mrAL7ITqRMLgLXtR8wcdWMfSWqXhcS8gAuzE6kLC4DV9gB+iVv6SlJb3Qk8EbgiO5E6sAAIDyceF9kyOxFJUqluBg4CrstOJJsFAGxDDP47JOchSarGn4ki4KbsRDJ1fSvbzYCzcfCXpC7ZETiHGAM6q8sFwAzisZBdsxORJFVuV2IM6OwTX11+zv2/iH2kJUndtB2wLfD97EQydLUAeAfw7uwkJEnpHg3cB5yfnUjVujgJ8OnAD+lu8SNJWtty4FnAWdmJVKlrBcAjgQuAjbMTkSTVyt3A44E/ZidSlS5NAtwYOAMHf0nScJ0bI7pSAEwBvgE8KjsRSVJtPYoYKzpxi7gTbxL4JPDy7CQkSbW3MzCbWCOm1bpQALwSOCk7CUlSY+wP3ABcmp1Imdo+CXB/YvvHzi70IEkayGLgybT48cA2FwDbAr/FDX4kSYO5BXgc8NfsRMrQ1kmAs4iVnRz8JUmD2pIYS2ZlJ1KGthYAXwIek52EJKnxHkOMKa3TxkmAbwTelZ2EJKk1dgcWELeVW6NtcwB2Iw5QKy/XSJLSPEjMB7gyO5GitOkWwAzgazj4S5KKN4sYY1rzVFmbbgH8M/Dc7CQkSa21BbAB8JPsRIrQllsAzyR2+GvL+5Ek1dNKYufAH2cnMlFtGDA3By4f+qmx3Qb8YSj+SNwC2hTYbOjnqn/eZuinpOa7F/gd8Bdi3/tVsXDo50xiktvuwB5EP6Cx3Ua01W3ZiUxEGwqAHxFXADS6o4lq9e4+/s4jgAPXiF1ox/kitdkS4PfAhWvEH4hvrb3aGvg48IrCs2uXHwOHZScxEU3v0N8K/Gt2EjV3A7Aj/XUAI9kUOGAongHsPcHfJ6kYfwFOB75LPAW1uIDfuS9wQQG/p+3eBpySncSgmlwA7ElUt62ZkVmSk4D3lPB7HwUcBbwEt1mWqvYnYtD/DuU9m/5H4kqgRreYKJZ+n51Il8wEriC+1Rpjx6MHbON+7E0UGjckvD/D6EpcA5xANZ9pgA+V/H7aElcQY5Iq8u/kH/QmxNWDNvCAJhHzBf4NuGOCuRuGAcuIb/pPonqP6DPXLse/D9jG6tNzyD/YTYnjB2zjIswCXgVcMkJehmGMHQuAjwHbkesC8tuiKfGcAdtYPdqS+GBkH+imRF3uzR8IfIOYoZzdJoZR5/gd8Erqc0n5reS3SVNiAe5AW6ofk3+QmxIXD9jGZdoa+DBwM/ntYxh1iSXEErMHUD9bELchstuoKdH4xYHq6mjyD26Tos47Ik4njuf55LeTYWTFzcREu62ot5+Q31ZNiqMHa2aNZhPgVvIPbJPiYQO1dPX2AU4FFpHfZoZRRZxHDBLTaIZjyG+zJsWtxJilgvwn+Qe1SfGHwZo51RzgvcSiJtntZxhFxyKi0N2H5tkCWEF+GzYp/nOgltYwB+PJ1298eqCWrocpwJHAueS3o2FMNJYDX6E5V+RGcyn5bdmkWEGMXZqA6cCV5B/MpsURgzR2DT0V+A357WkYg8SPgb1oh0+Q355NiyuJMUwDej/5B7FpsQzYaJDGrrFn43oCRnPiIuAptMvTyG/XJsb7B2lsxSpUD5J/AJsWvxmksRtgEvBC4Cry29gwRor5wItp9h4ro5mJ/fEg8SA13k9hcnYCY/gM9VkMo0l+mp1ASVYC3yb2LH8FcF1uOtJDFhAL5swDvkmcq22ziJiXo/7MJMYy9eHl5FduTY0n9d/cjTQVeC0+NWDkxULgI8AGdMM/kN/mTY2XD9DenbQZLvc7aNxP9yadzCD25L6L/PZvSiwnzpXbh+L+oT/LzqspsRT4LN1b9nVP8tu+qbGAGNtqpY73qr4IHJudREOdAxyanUSSLYFTiHkCbbQUuAW4aShuHoqFxH3GVbFonX8f6c+WjPIa04lNnFbFzHX+faQ/m02sZLcVsdTz1sSxaMoiN/06E3gnsTVvF90KbJ6dREN9idggrTbqVgA8Efjf7CQa7CTgPdlJJHs28B/k76LWq2VEp7rmwH7TOnEzq6+KNcEkYC5rFwWrYs0/24K4ldMENxH3+U/PTiTZj4BnZifRYE8CfpmdRB3NIFawy75U0+R4ad+t3k6zgX+lXpe17wZ+DXyeGEgOIQbBOk/ELdtkog0OIdrk80Qb3U3+8VoVK4iCsm2P1g7q4+QfkybHH4ixTus4nvyD0/TYo+9Wb7d9gcuo9hjcR+yh/kXgHcDTgW3LfqMttC3Rdu8g2vICom2rPJZXUM8d+jIdRX4/1/Q4vu9WL0ldbgFsDVwLrJedSIMtJb75jnZ/t6umErOXP0jcsy7KCmKAuGzo55VDcQPxIVfxJhFL6u42FLsTK+3tTrFXUhYBHyVuqS0t8Pe2wTxiLQ4N7gFgZ+LWnohLf9lVWdPj8r5bvVseTqyRMGj7LiW+hX6CmGewcbXpawwbE8fkE8QxWsrgx/nnwCOrTb9RpuCCQEXE5/pt+LaaR0yEyj4gTY+v9dvwHXUM8ejbeO25GPgV8U3wUOLqipphNnHMPkocw8WMf7zvwKePevVb8vu7pscyYJd+G76N/of8g9GGeG+/Dd9hc4HTWLv97gd+RtwqeBKuQtkmM4lj+kHiGN/P2sf+q8Q5od78F/n9XRviu/02fNscSP5BaEs8q8+2V0wyew8x0autz61ruGnEMX8PcQ6oP28hv79rS+zfZ9u3yq/JPwBtiR37bHtJGsRTyO/v2hKp+ytkPoN8BD5iU6RbsxOQ1AnOXi/OwcQE1hRZjwFOIR6dchJEMe7HSWqSqrEpMWlSxbiS2GdhRdUvnHUF4NU4+BdpQXYCkjrjLmIWu4qxG/F0UuUyrgCsB8wn1gRXMX5LrHonSVW4CfvwIv0VeASxCFVlMq4AHIcnTtFuy05AUqfY5xRrW+LpikpVXQDMAd5V8Wt2gbcAJFXJScfFey+wSZUvWHUB8AFgw4pfswssACRVySsAxduEihd0q7IA2Al4fYWv1yV+GCVVyT6nHG8BtqvqxaosAP4RmF7h63XJ/dkJSOqUhdkJtNRM4ENVvVhVBcCOwIsreq0umpqdgKROmZKdQIu9nJgUWLqqCoB34AlTJgsASVXKXEW27aYBb6vihao4iJsBr6rgdbrMAkBSlfxCV67XAhuV/SJVFABvIhb/UXn8MEqqkn1OuTYEXlf2i5RdAMwC3lzya8grAJKqZQFQvrdR8sT5sguAY4C5Jb+GLAAkVcsCoHxbA0eX+QJlFgCTgb8v8fdrNQsASVWyAKjGP1Dinj1lFgDPA3Yu8fdrtZnZCUjqFNd0qcZuwGFl/fIyC4B3lvi7tbZKnhmVpCHbZCfQIaWNpWUVAAcDjy/pd2u4h2UnIKlTKluuVjwReFwZv7isAsBv/9XaITsBSZ2yfXYCHVPKmFrG5IJ5wJUl/W6NbCXxyOXi7EQktd6GwD3ZSXTMcuBRwJ+K/KVlXAEoddaiRjQJK3JJ1bCvqd4UYkn9QhVdAGwFvKzg36ne7JCdgKRO8P5/jmOBOUX+wqILgLfi4yFZnAgoqQoWADlmEUvrF6bIAmAa8OoCf5/6s2N2ApI6YYfsBDrsNRS4CFORBcCzcNnfTPtmJyCpE0p5JE092QZ4WlG/rMgCwC1/cz0el+eUVK4puMZLtsLG2qJm628B/BXXpM+2N3BpdhKSWuvRwCXZSXTcYmKjoDsn+ouKugLwchz86+CA7AQktZp9TL4ZFLRLYFEFwLEF/R5NjB9OSWWyj6mHQsbcIgqAfYFdC/g9mrgDsxOQ1Gr2MfXwGGDPif6SIgoAv/3Xxw7EYkySVLSt8BHAOpnw2DvRAmAm8JKJJqFCPSE7AUmtZN9SLy8j1t8Z2EQLgCOBjSb4O1Ss52cnIKmV7FvqZQ7wnIn8gokWAF7+r59nA7Ozk5DUKrOJvkX1MqExeCIFwPbAUyby4irFLOC52UlIapXnEn2L6uUZwJaD/uWJFADHTPDvqzzOy5BUJPuUeppKrMMzkEFXApwEzAd2GvSFVaqlRFU44ZWiJHXepsAtTHDCmUpzNQM+ij/oN/gn4OBfZ9Nwwo6kYjwfB/86m8eA+zMMWgC8YsC/p+oclZ2ApFawL6m/gcbkQQqAyUzw0QNVwp0BJRXBvqT+Bpr4PUgBsB8wd5AXU2X+hLcAJBXjBcB12UloTNsA+/T7lwYpAPz2X293Ac8C7shORFIr3E70KXdnJ6IxHd7vXxikAOj7RVSZpUS1fk12IpJa5Q/AC4Fl2YloVKWPzTsBK43axqtHP3SSNGGvJ7+fM0aP7UY/dMP1ewXAy//19U/AF7KTkNRqnwVOzk5Coyr1KsDPyK9wjOHxXQZf1EmS+jEZ+AH5/Z4xPM4a47gN08+gsRGwABeEqJvLgAOAB7ITkdQZs4ELGHAFOpVmCbFL4H29/M/93AJ4Jg7+dbMIOBoHf0nVWgi8lBhwVB/Tgaf3+j/3UwB4/79+3g1clZ2EpE66FPhAdhIapud5AL3eApgK3AZsMlA6KsM5RKW3MjsRSZ01GfgFsT+M6uFOYHNg+Xj/Y69XAA7Cwb9O7gReiYO/pFwriHXo78lORA/ZFDiwl/+x1wLAxX/q5XXATdlJSBJwA/Dm7CS0lkLH7GvJf7zBiPjyOMdKkjJ8k/z+0Yj44zjHCuhtDsA8nGhWF9cDewH3JuchSevaBLic2JhG+eYRSziPqpdbAM8sJhcV4HU4+Euqp7uAN2YnoYccNt7/0EsBcFABiWjifgScnZ2EJI3hDODn2UkI6GHs7uUWwK3EIwXKswzYE7g6OxFJGsdewMUMttusinMbsMVY/8N4B2hnHPzr4PM4+EtqhsuAU7OTEJsTY/ioxisAenqWUKW6Bzg+OwlJ6sP7iOWClWvMMXy8AsD7//lOAG7PTkKS+nALcFJ2Ehp7DB9vDsBVxKMEynEd0f5uuCGpaWYB1wDbZSfSYVczxo6NY10B2BTYpfB01I934eAvqZkeBN6bnUTH7UKM5SMaqwA4gN43C1LxLgZOz05Ckibga8AV2Ul02CRiLB/RWAWAEwBzfSo7AUmaoJXAydlJdNyoY/lYBYATAPPcTKyrLUlN91VgQXYSHTbqWD5aATAdeGw5uagH/wEszU5CkgqwiOjTlOOxxJg+zGgFwD7AzNLS0VgWAZ/NTkKSCvQZYHF2Eh01kxjThxmtAPD+f57T8Ll/Se1yKzEhUDlGHNMtAOrHCTOS2siJzXksABrgHODK7CQkqQSXAz/NTqKjei4AdgbmlpuLRnFKdgKSVCL7uBxzGWFjoJEKgN3Lz0UjuAs4KzsJSSrRT4i+TtUbNraPVAC49n+O7+Ojf5LabSnR16l6w8b2kQqAUTcOUKm+k52AJFXAvi7HsLHdKwD1cA8xAVCS2u4cos9Ttca9AjAJdwDMcCbu+iepG5YQfZ6qtQvrbPC3bgGwPbB+ZeloFS+JSeoS+7zqrU+M8Q9ZtwDw/n/17sPZ/5K65Syi71O11hrjLQDy/YBY/1+SumIR0fepWmMWAE4ArN4Z2QlIUgL7vuqtNcZ7BSDfr7MTkKQE9n3VW2uMn7TOf7wL2Li6XDrvr8B22UlIUpIbgW2zk+iQu4FNVv3LmlcAtsLBv2rnZScgSYnsA6u1MTHWA2sXAN7/r9752QlIUiL7wOo9NNavWQB4/796Vr+Susw+sHoPjfVeAcizCLgkOwlJSnQJPgZdNa8A1MBFuPufpG5bSvSFqs6IVwB2Skiky7z0JUn2hVV7aKxfswDYMiGRLrswOwFJqgH7wmo9NNavKgA2A6bn5NJZ12YnIEk1MD87gY6ZToz5DxUAfvuv3p+zE5CkGrAvrN6WsLoA2GqM/1HFux13wpIkgHuBO7OT6JitwAIgy3XZCUhSjVyfnUDHrFUAeAugWl7ykqTV7BOr5S2ARF4BkKTVLACq5RWARBYAkrSaBUC1vAKQyJNdkla7PjuBjnESYCKvAEjSan4pqpa3ABLdlp2AJNXIrdkJdMyWAJOAWcADubl0ykpgytBPSRLMwF0Bq7beZPz2X7VFOPhL0poWA8uyk+iYLSfj/f+q3Z+dgCTVkH1jtbayAKieJ7kkDWffWK2tvAVQPedbSNJwC7MT6JgtJwMbZ2fRMVa5kjScfWO1Np4MzMzOomO8AiBJw1kAVGumBUD1PMklaThvAVTLAiCBVwAkaTi/HFXLAkCSpA6yAEhge0vScPaN1bIASDArOwFJqiH7xmpZACSwvSVpOPvGalkAJLC9JWk4+8ZqzZxM7MKk6niSS9Jw9o3VmuEVgOrZ3pI0nH1jtbwFkMD2lqTh7BurZQGQwJmukjScY1G1LAAS2N6SNJx9Y7UsABI46VKShnMsqpYFQILJwPTsJCSpRqYTfaOqYwGQxDaXpNXsE6s3czIwJTuLDnIioCStZp9YvSmTgQezs+igzbMTkKQamZudQAc9YAGQY6vsBCSpRuwTq/fgZOCB7Cw6aOvsBCSpRuwTq+cVgCRWu5K0mn1i9SwAkniyS9JqXgGonrcAkniyS9JqfimqnlcAkniyS9Jq9onVswBI4skuSat5VbR6D1oA5LAAkKTV7BOr94BzAHLMBDbJTkKSamBjXAo4g7cAElnxSpKX/7N4CyCRJ70k+WUoi7cAEm2TnYAk1YB9YQ5vASSal52AJNWAfWEObwEk2iM7AUmqAfvCHN4CSLRndgKSVAO7ZyfQUd4CSLQt8fiLJHXVhsDDspPoKAuAZF76ktRlfvvP4xyAZBYAkrrMPjCPcwCSefJL6jL7wDwPTAYWZGfRYZ78krrMPjDPgknEmvR3ZmfSUffgREBJ3XUHsGl2Eh21/mTgLmBhdiYdtRGwfXYSkpRgGxz8s9zB0C0AgBszM+k4L4FJ6iKfAMhzI8CqAuAviYl03V7ZCUhSAhdDy7NWAeAVgDxPzE5AkhIcnJ1Ah1kA1MTBwIzsJCSpQlOBJ2Un0WHeAqiJWcCB2UlIUoX2BTbITqLDvAJQI0/NTkCSKnRIdgId5xWAGrEAkNQl9nm5bgSYNPQvs3BJ4EwrgDnEmgyS1GbrE4vPTc9OpKNWAjOBJauuADyISwJnmgw8JTsJSarAwTj4Z7oVWAKrbwGA8wCyeUlMUhfY1+V6aKy3AKgPPxSSusC+LteIBYATAXPtDOyQnYQklWgurgCYzSsANWVlLKnNnsLqyefK4RWAmnpedgKSVKLnZCcgrwDU1aHEJTJJapv1gCOyk5AFQF1NBV6UnYQkleC5xBoAyjViAXATsLz6XLSOl2YnIEklODo7AbEcuHnVv0xe5z/MrzwdrWt/YMfsJCSpQJsBT89OQsxnjS/6k9f5jxdXm4tGYaUsqU1eAEzLTkJrj/HrFgCXVJiIRudtAElt4peaelhrjPcKQD3NA/bOTkKSCrAdsf6/8o15BcACoD68CiCpDV6Ci//UxZgFwF3A9ZWlorEcxfDjI0lN4+X/eriedbacH2mA8SpAPWxDLAwkSU21J7BXdhICRhjbLQDq7bjsBCRpAuzD6qOnAsAnAerjUGD37CQkaQBb4eX/Ohk2tnsFoP6soCU10VuA6dlJ6CHDxvbRZmbeRFRvyrcY2B64LTsRSerR+sSa85tkJyIglv/det0/HG2WuVcB6mMG8MbsJCSpD6/Cwb9ORhzTLQCa4Y3AzOwkJKkHU4C3ZyehtfRVADgRsF7mAi/LTkKSevA8YKfsJLSWEcf00eYAPAwXBKqbq4gnAlZmJyJJYzgf2C87Ca1lB+CGdf9wtCsANwB3lpmN+rYrcFh2EpI0hoNw8K+bOxlh8Iexl5p1HkD9nETcX5OkOjoxOwENM+pYbgHQLLsBr8lOQpJG8ELgwOwkNMxABYATAevpw8CG2UlI0hpmAP+UnYRGNOpYPlYBcFEJiWjiNgf+X3YSkrSGtxMTzVQ/o47l4+3RfAOxCp3qZTGwCz6pISnf5sB8YIPsRDTMX4in+kY03n7zPyk2FxVkBk62kVQP/4iDf12NOYaPVwCcVWAiKtaLgf2zk5DUaXsAr85OQqMaswAY7xbAhsAdwNTC0lGRfkPMul2RnYikTjoHeGp2fRM5ZAAAGCFJREFUEhrRMmAz4N7R/ofxrgDcS6zqpHraD/j77CQkddKrcPCvs/MZY/CH8QsA8DZA3Z0A7J2dhKROeRRwSnYSGtO4c/h6KQCcCFhv04GvArOyE5HUCdOBrwPrZyeiMRVSAFwMLJh4LirRPOCfs5OQ1Akn4lXHuruNHhbz66UAWAmcPeF0VLY3AM/OTkJSqz2DWPRH9XY2Pewc20sBAN4GaIovAFtkJyGplbYAvsz4T48pX09jdq8FQE/VhNJtDnwxOwlJrTOJGPw3z05E4+r5qn2vBUBP9xNUC4cBH8tOQlKrfBR4enYS6snv6HHeXq8FAHgboEneC7w+OwlJrfA2ok9RM5Ty6P7BxKUFoxmxDHjOiEdSknpzNLHSaHZ/ZvQeB414JEfQz2SOqcSywO5F3xwPAE8GLsxORFLjPB04E5iWnYh6dg8wh/gCOK5+bgEsA342SEZKsx7wA+Dh2YlIapR9gdNx8G+an9Lj4A/9FQDgPIAmmksctznZiUhqhF2AH+FKf03U1xjdbwHgvgDNtDPwY2JnKEkazc5EP29f0Ux9jdH9FgA3AFf3+XdUD48FfgVsl52IpFp6LHAesH12IhrIlcCN/fyFfgsAgG8M8HdUD/OAXxOX+CRplUOBXxC3DNVMX6viRXbAx0KaHrcTk3wk6WhgCfn9kjF4rKDCKze/rOANGeXGfcDT1j2wkjrlHfiFrg0x0BN6g9wCgFgTWs02m3hE8EXZiUiq3CTgE8Q24m7u03yVjskbEIvMZFc9xsRjOfABBi8GJTXLhsC3ye97jGLiPgZ8ZHPQTv8+4HsD/l3Vy2TgI8Tzo+70JbXbY4CLgRdkJ6LCnA7cP8hfnMi3Pm8DtMvTgEuBJ2YnIqkUbyIe83Nl0Hb5SsaLTgb+Rv7lD6PYWAa8D+8LSm2xEV7yb2vcwAT66olcAVgBnDaBv696mgKcQKwc6DPBUrM9Fi/5t9l/E4VAit3Ir4CM8uJvxI5gkpplCvAPwGLy+xGjvHgkyS4ivxGMcuObwFZIaoL9ifk82f2GUW6cxwQV8ehXygQEVepFwB+ISUQ+LijV06bA54nlvvdKzkXlq8XYOweXkexSXEg8SiSpHiYBrwQWkN8/GNXEImBjJqiIb3O3ExPG1A2PI4qAk4kFoSTl2Y1Ymv1LxJcxdcMZwN3ZSaxyJPkVkVF9/BX4O2Aqkqq0BXAKsJT8fsCoPp5FjUwH7iC/UYyc+CPwElw7QCrbJsDHiZXfsj/3Rk7cQkFfuoqa0LUE+EZBv0vN8whiL+pLgcOTc5HaaDbwfuDPwHuA9XLTUaKvEgu21cq+5FdGRj3iN8AhSJqomcBxwG3kf66NekRtn/C4jPzGMeoTPweeiqR+rQe8GbiR/M+xUZ+4gBo7mvwGqiqWEo9iZOfRhLgUeDkwDUlj2RL4KM6pMkaO51OgoidtTQWuBXYo+PdmuRY4k/gmeztwD3Dv0M/7ifbbhliO8VHr/NwJJ8Wt62/EzOXPU6NHWKQa2B14B/BSYlK1tK5rgV2IfXhq683kV0kTjc8RA/lEPAx4L3BFDd5P3eI+Yh2BHQZtXKklnkqso5L9mTTqH6+hAWbR7Akr/1R8k/Bo4BPEc/PZ769OsYzo/F4EzBi4daVm2Rp4N7G8dvZn0GhG3EyD+sgPkN9gg8SdZTTGGiYDTyEemVuR/F7rFncAnwb2Gbh1pfqaTmzJ+0Oi8M3+vBnNinfTIJsSl3mzG63feLCMxhjFfsBvS3ofTY/fE48+zR24daV62JuY93I7+Z8ro5lxD7ARDfMv5DfcILFnGY0xisnAq4FbS3gfbYhlwLnAO4nJL1LdTSOu8n0K+BP5nyGj+XESDbQtzdwl8AKq3/J2I6LDcF3vseOPwD8DT8L9B1QfmxCPQH+deLol+3NitCcWA1vRUKeS34CDxNtLaIte7Aqc02OOXY87gdOJqwMH49Koqs5WwBHAicQVKgt3o6z4L0pU9nPquxKPwTXtefj7iedyr096/ecRt1B2SHr9JloGXE5cwfnNUPyR+BBJg5pJTEx9PDFv5/HA9qkZqStWEGPoNWW9QBUD8/dp5gYxZwHPSHz9DYEvEDOHNZi7iYJgVVFwAeU/6aFmewRrD/Z74QqWyvE94MgyX6CKAmB/4LwKXqcMnwfeQO7KS28n1iawEyrGtawuBi4e+vfbUzNShinAdsTk0n2JAX9fYLPMpKQ17EfJa/9XdWn+XOI+bRN9h1iec0liDgcA3yQmVqp49wLziVnb6/78G95GaKoZwI7Aw4Gd1/m5IxbVqq9fEpOdS1VVAfAs4AcVvVYZfkrcl1+YmMNc4LvAQYk5dNEi4DpGLhBuoIb7cnfMbIYP7qt+bkv1T/RIRTiMWCW1FSYRi7tkz6icSFwIzCm6Yfq0Hj4lUKdYSpwXjVukowWeQCyPmn0OGEbRcRkt9DLyG3ai8Rei48k0k7iakt0WBjxAzHFRjtfiktpG++KltNBU4rG67MadaCwHPk7uc+fTiLkJ2W3R5VgGPHu8A6XSvQaLAKM9cT0tXuTsdeQ3cFHxN+BY8u4xTiEmBma3Q1fjVeMfIlXk1VgEGO2I19FiU4jFWrIbuci4jLyJeTOAX/eQo1FsvK+Xg6NKvY3888IwJhKXE2Nkqx1KfkMXHUuBfyiykfowF/hzDzkaxcSnezssSvAN8s8Pwxg0DqUjfkh+Y5cR3wE2KLCderUbsWVk9vtve3wbHyurs9nA1eSfJ4bRb/yQDplHezfQ+AOxyEjVnkFMTMt+/22Nm4jlmVVvuxHrdWSfL4bRaywlxsTKZd1vuB3YnFh6s23mEOs3n0m1687PH/r55Apfs0veAFyUnYTGtYB4XLfUNdSlAv0H8JXsJKq2GXAX+dVXWfE3Yp3xKk0FLikgd2Pt+GU/B0G10NbbjEa74i46vP/EceQfgDLjFmJb4SrtRexbkP3e2xJLgT36OgKqg0cAi8k/fwxjrDiODptG7MaWfRDKjJuAbYpqsB59qIC8jYiT+2t61cjHyT9/DGO0uBY3pOII8g9E2XEx1a4cOI1YnyD7fTc9bsGJf022PvBX8s8jwxgpjkAA/Jz8g1F2fJfqdl8E2AefCphovLzvVlfdHE3+eWQY68bP0UMeTayxn31Qyo6PFdVgPfpUgbl3Lf5vgPZW/UwiHs3NPp8MY1UsJ8Y8reEL5B+YKuL5RTVYD2YTj0Rlv+cmxvMGaG/V05vIP58MY1V8gZqo8pL0eLYkJkXMzk6kZHcQs8pvruj1Dge+X9FrtcXtwNbEEwBqvtnEXICNshNR5y0knlC5JTsRqNeyprcAJ2YnUYHNgC9W+HpnAN+r8PXa4Os4+LfJQqr9zEmjOZGaDP51NBO4gfxLNFXEGwtqs15sA9xb0vtoYzxmsGZWje1EN+YZGfWNG4gxTmN4CfkHqoq4H3hUQW3WC++D9haXD9rAqj1XBzQy4yVoXJOA88k/WFXEhcTyvVX5Vknvo02Rta2zyncs+eeX0c04n3rNuau13YBF5B+0KuLDBbVZL9YHrijpfbQhlhGTUdVOm+NtAKP6WESMaerDu8g/cFXEMuDxBbVZL3am3ZswTSQ6tSd3R51H/nlmdCvehfo2me58WP9IfDuvyrOAFSW8j6bHCyfSqGqE95B/nhndifOo19N2jfJI4AHyD2IVcVJBbdarDxaYextiOe1fg0JxKTb7XDO6EQ8QY5gm4G3kH8iqTpYqdw2cBJxWwvtoalw5seZUg1xH/vlmtD/eRs014dLEKcAvs5OowCzg+ApfbyVwDPDVCl+zzn6XnYAq4z4PKtsvibGr1ppQAKwkHt9ZmJ1IBY6l2ktGy7EIWOWi7ARUmd9mJ6BWW8jqR05rrQkFAMCfgXdmJ1GBqcAJFb+mRUCwAOgOj7XK9E5izFLBzib/vk7ZsQLYp6gG68MUujsnYBmw3sSbUA0xi9jrIfu8M9oXZ6PSbAfcTf5BbutJNAX4GN17RNDlf7vnUvLPO6NdcTcxRjVGU24BrHIjcFx2EhV4GvCUhNddDvw/4DnEYkFd4SXh7vGYq2jHEWNUYzStAAD4Et1Ysa3KJYLX9UNiR7yudJI+AdA9F2cnoFb5ITE2NUoTCwCA1wB3ZidRsoPImQuwyvVDOXw2MYeqdKXQ0Wo3ZCeg1riTGJMap6kFwM3AW7KTqED2QhKLgTcQSwdfk5xLWS4CLstOQpVr1KVa1dpbiDFJFTud/IkfZcZi6rM73TTg7bRjI6F7iSsbexfaQmqSTck/D43mx+kozVzgNvJPgjIjcy7ASOYAnyEenctum37jIuJSnWv+C+B+8s9Jo7lxGzEGKdGR5J8IZcatwIzCWqs4uxLfou8jv43GiquAk8mdT6F6uob889NobhyJauFk8k+GMuOY4pqqcBsCbyI208lup5VEwfRV4JVUu7mSmuen5J+vRjPjZFQbU4FzyT8pyopLimuqUj0R+HfgCqpZTOhe4nGubxHLbz6a2OVQ6sWp5H+2jebFucSY03ht6iy3IAaDrbMTKcnBNGsXsznAE4iiYH/iuMyht9sZK4jtkVfFXcB84Np1ft5SeNbqklPoxtNEKs5NxBopt2YnUoRWVDFDbgVeAPwvMD03lVK8iWYVALcD3x2KNW1AFAJziCcLHhghFlWXpjrswewE1ChLiDGmFYN/W72B/EtEZcQS6vNIoNQGHyb/c200J95AyzR1IaCxfAb4cnYSJZgGvDY7CalFvNKkXn2ZGFtapY0FAMDraeda36+jXbdtpEwWAOrFxcSY0jptLQAWEc9o3pGdSMG2Bp6XnYTUEhYAGs8dxFjSynOlrQUAxGYfLyFmlLfJh4jbAZImxkmAGssKYgxp7cZRU7ITKNl1wFLgkOxECjSXWH3vvOxEpIabBzw/OwnV1vto53yyTplEPIqWPYO0yFgIbFdkI0kddBT5n2WjnvFd2rVOzojafAtglZXEUrpt2s52feBT2UlIUgtdQ4wZK7MTKVsXCgCIS+bPG/rZFs8HnpGdhCS1SBvHilF1pQAAuBo4NjuJgv07sEl2EpLUEscSY0UndKkAADgdOCk7iQLtBHwb1waQpIk6iRgj1GJTgHPIn2RSZHy20BaSusFJgMaqOIf2PxU3TNeuAAAsJzZ0uDQ7kQK9DnhrdhKS1ECXEmPC8uxEqtbFAgDgHmIC3Z+yEynQv+CkQEnqx5+IfvOe7EQydLUAgNjS8VDas6f8FOBbwJOzE5GkBriFGAM6u71vlwsAiJUC21T9bQD8BDg6OxFJqrFVV4Gvy04kU9cLAIDLgMNpz2YP04HTgHdnJyJJNbSI6PMvy04kmwVAOBd4Me2ZBDIJOJFYJ8BjLElhOdHXn5udiOrnWPIfRyk6zgTmFNlIUkv4GGD3om2Lwalg7yL/JC06biWWt5S0mgVAt+JdSD34JPknaxlxGi4dLK1iAdCd+CRSjyYBp5J/0pYRNwHPKqylpOayAOhGnEoHtvZVsaYS98+zT96y4ofA3oW1ltQ8FgDtjzNxrxQNaBbwK/JP4rJiBbF40C5FNZjUIBYA7Y5fEX24NLCNgd+TfzKXGcuIy2QPL6bJpEawAGhv/J7ouzUGnxEf393A04E/ZydSoinAMcC1wM+AlwHrpWYkSYP5M9Fn352diNpjZ2ICXXZlW1XcA3we2L+IxpNqyCsA7Yu/EX21VLidiN2jsk/yquMmYq7AW4BH45UjtYMFQLviT8COqGc+GtG/rYBzgN2yE0l0D3AecAlx22D+0M8m7Ko1B9hjjfgS8V7UPUcBX89OQoW4gtjZ7+bsRJrExyP6dzPwBODHwL7JuWTZCHjmUKzpPlYXA9eu88+3VZjfbGC7odgemMfqAX/Ldf7fH1eYl6TiXQAcBtyZnUjTWAAM5k7gEOD7wFOSc6mTDYi1BUZaX+A+YAFx9eAe4N41/nmkf18MTBuK6WP8XA/YhtUD/nb0N/vXq2BSc/0MOAJYmJ1IE1kADG4hUXV+E3huci5NsMFQ1I3zGaRm+h7wEuLLggZg5zcxi4EXAP+dnYgG5hUAqXlOBV6Ig/+EWABM3DLiGfpPZyeigfgZkJrlZOBVwPLsRJrOzq8YK4lH5E7ITkR98zMgNcfxwHFEn6sJsvMr1geAv89OQn3xFoBUfyuBtwIfyU6kTSwAivcvwKvx8lRT+BmQ6m3VbdZ/y06kbez8yvFFYpGRJdmJaFxeAZDqy4nWJbIAKM93gMOBB7IT0Zj8DEj1tJBYbOz72Ym0lZ1fuc4Cnoa7UtWZnwGpfu4gFln7RXYibWbnV77zgAOJ5XBVP94CkOrlKmIX0t9mJ9J2FgDVuAp4HPCD7EQ0jJ8BqT6+CzwevzBVws6vOvcQcwI+gs+w1omfASnfCuD9xIQ/1/WviJ1ftVYSC1kcQWx+o3zeApBy3Q08G/gofjmqlAVAjjOIrYT/kJ2I/AxIia4gbo+6LXcCO7881xBFwP9kJ9JxXgGQcnyHmOw3PzuRrrIAyHUfcCSxhPCK5Fy6ys+AVK0VwHuJ3fy835/Izi/fSmIToefgegEZ/AxI1bkLOAw4MTsR2fnVyY+Ie2FXZCfSMd4CkKpxOfBYYoE01YAFQL3MB/YDvp2dSIf4GZDK9y3ifv912YloNTu/+rkfeBHwHpwXUAU/A1J5lgPvAl5M9G2qETu/+joJeAZwZ3YiLectAKkcdxKb+XwiOxGNzAKg3s4B9gF+lZ1Ii/kZkIp3LtF3nZOdiEZn51d/1wNPAo4DHkzNpJ28AiAV50Hg7USfdX1qJhqXBUAzrABOBh4NnJ+cS9v4GZCKcR6wF/CvuKRvI9j5NcsfgYOBdwOLk3NpCz8D0sQsAt5J9E3u4tcgdn7Nsxz4J+AxwEXJubSBtwCkwV0I7A18Ep9aahwLgOa6iniu9gPA0uRcmszPgNS/xcRyvgfgpmaNZefXbMuIZYQfB1yWnEtT+RmQ+vM7Yob/icQVSTWUnV87XEYUAf9IFAXqnZ8BqTdLgQ8Sq5VemZyLCmDn1x5+OAfjZ0Aa36X4JaN17PzaZ9XluZPw8lwv/AxIo1sGfATYF28zto6dXzstJvYSOAi4JjmXupuSnYBUU1cAjweOx4nGrWQB0G6/IR7R+RDwQG4qteVnQFrbvcQM/32Ai5NzUYns/NrvQeDDwCOAU/FZ3XX5GZDCcuBzRF9xIrAkNx2Vzc6vO24CjgUeC/xvbiq14mdAgrOJpcZfD9yWnIsqYufXPZcATwaOIJYW7jrnAKjLrgYOA55O3PNXh1gAdNf3gd2JnbvuTM4lk58BddHtwJuAPYEfJ+eiJHZ+3baU2LlrZ+BTdHOmr58BdckSYt3+nYH/wGf6O83OTwB3Ae8AdgW+l5xL1fwMqCtOB+YRO/fdk5yLasDOT2uaDxwJPJFYUKgL/Ayo7S4itup9AXBdci6qETs/jeRcYtnPY4C/JedSNicBqq3+CryCWMXv/5JzUQ1ZAGg0K4GvAI8kVgJbmJtOafwMqG0WEvuCPBL4b+KzLEkD2wR4H3Ar0aG0Jb5SZCOpUY4i//wrMm4lPqObFNlIkrTKTOANxHyB7A6viDit2OZRg7SlAJhPLOAzs9jmkaSRTQFeREwWzO4AJxJfK7ph1BgvJv/8m0hcBLwQb2NJSvRU4BzyO8RB4nMltIea4Znkn3+DxFnAISW0hyQN7DHAN4nFRbI7yV7jQ2U0hBrh0eSff73GMuDrQzlLUm09HPgMsRNhdsc5XrympDZQ/c0l//wbLx4APg3sWFIbSFIpNgdOIPYayO5IR4tHlfbu1QTXkH8OjhR3ENt4zynvrUtS+WYTSw3fSH7HumZcXeabViP8M/nn4ZpxA/A2YP0y37QkVW0a8eTAj6jHPIEPlPt21QD7kn8eLgXOBJ4PTC337UpSvq2ITUmuJKfT/Rt+y1L4H3LOwcuBvwe2KP8tSlI9PZaY6HQH1XW+r6jknakJdiW2ya3ivLsdOIV4YkaSNGQ6cRn0TOKyaFmd8ClVvSE1xisp73xbCpxB7LQ5vaL3I0mNtQUxcfD3FNsZfwtXTtPIPkyx59plwHHE0zCSpAE8BvhXYAGDd8aLiDkHDv4ay8uBuxn8PFsAnAzsXXXiktRm04AjiElbvd6zvQ/4DnGfV+rF9sQmUb0WAkuIc/II4hyVGmFSdgLSgOYC+wPbAtsNxYbAPUNxF3A+8DNgcVKOarZpwJOBg4gtdjcGNgLuJda0uBH4K3GeLUjKUZIkSZIkSZIkSZIkSZIkSZIkSa33/wGqXnFnZWCSoAAAAABJRU5ErkJggg==;" vertex="1" parent="1">
                    <mxGeometry x="74.5" y="730" width="60" height="60" as="geometry"/>
                </mxCell>
                <mxCell id="18" value="" style="shape=image;verticalLabelPosition=bottom;labelBackgroundColor=#ffffff;verticalAlign=top;aspect=fixed;imageAspect=0;image=data:image/png,iVBORw0KGgoAAAANSUhEUgAAAgAAAAIACAYAAAD0eNT6AABbS0lEQVR42u3dd5hcZfn/8feZvn2zPb1XUklCIPTeewlNRESwISKo6E+/CoodVJqoICgICCi9BQiQECB0EkIC6W2TTba36TO/P4YSIGV3p5wyn9d1PdfCZnf2PmfmnOc+TzWQAmAUMAwY/tHXOqASqProa+l2PxswO2AREdmhEBD86L/bgSag8aOvW4C1wJqPvq746OfzlmF2ADlWAsz6qEwBJgGjAbfZgYmISE7FSSUBi4F3gdeARUCH2YHlitMTgCLgYOBIYH9gIqrsRURkx+LAEmAB8BTwAtBtdlDZ4sQEoD9wGnA8cADgNzsgERGxpRAwH3gE+C+pbgTHcEoC0A84E5hD6knfZXZAIiLiKHFSycB9wL1Aq9kBpcvuCcB04CLgHFLN/SIiItkWJtUq8DfgOSBpdkB9YccEwEfqaf8KUoP4REREzPIhcDOpZCCY5mvllJ0SgBLgko9KndnBiIiIbGczcD1wI9BpdjA9YYcEoBD4GvAjoNbsYERERHahiVQScC0Wn1Jo5QTADXwVuBpV/CIiYi9bgJ8C/wASZgezI1ZNAA4G/khqsR4RERG7ehu4DHjR7EA+z2oJQA3wZ1KD/ERERJziLlKJQKPZgXzMSqvinQ48AexldiAiIiIZNpnUeLYW4C2zgwFrtADUkuojOcbsQERERHLgUeBCYKuZQZidABwJ3E5q+V4REZF8sZXUQPfHzArArC4AL3AdcAOp+f0iIiL5pAg4i1QdOA8TZgqY0QJQTWod5UNM+NsiIiJWswA4gxxvNpTrBGAW8D9gQI7/roiIiJVtAk4C3sjVH8zlrnknk2rmUOUvIiLyWQOBF4ATc/UHczUG4HvAraQ28hEREZEv8pGaEt8KLMr2H8tFAnAV8CvMn3EgIiJidS7gaKAAeDabfyibCYBBajnfH2bzAERERBxoP1Kr4z6ZrT+QrQTAAP4KfCtbgYuIiDjcTFKL5T2RjRfPVgLwe+CSbJ0RERGRPDEDqCALLQHZSAB+hZr9RUREMmUWqfr6+Uy+aKYTgMuBX+TqjIiIiOSJA0ltJJSx2QGZHJl/HPAQ1tphUERExCkSwKmk6tq0ZSoBmEWqaaLAnHMiIiKSF7qAg8jAioGZSABqgTdJrWIkIiIi2bUZmP7R1z5LdylgL3AfqvxFRERypT9wP6k6uM/S7a+/Dphj9pkQERHJM0NIdbs/09cXSKcL4ChSixNoiV8REZHcSwLHA4/35Zf7WnlXA4uBOrOPXkREJI9tBSYDDb39xb6MATCAO1DlLyIiYrYa4O99+cW+jAE4H/i+2UcsIiIiAIwFVpFqme+x3nYBVAHvk+oCEBEREWtoAiaQ6hLokd52AdyAKn8RERGrqQSu7c0v9KYF4GBgntlHKCIiIjt1EPBiT36wpwmAG3iL1EhDERERsaZ3SG0hHN/dD/a0C+BCVPmLiIhY3VRSg/V3qyctAEWkRhfWmn1UIiIislubgZFAcFc/1JMWgG+jyl9ERMQu+gPf3N0P7a4FoBhYjUb+i4iI2EkjMALo2NkP7K4F4Duo8hcREbGbKuAbu/qBXbUA+IE1pJoSRERExF7qgeFAZEf/uKsWgHNQ5S8iImJXA4Azd/aPxi6+vxiYaHb0IiIi0meLgSk7+oedtQDsjyp/ERERu5sM7Lujf9hZAvA1syMWERGRjLhwR9/cURdAObAJKDQ7YhEREUlbkNR4gNbtv7mjFoCzUOUvIiLiFAXA6Z//5o4SgDN3/1oiIiJiI3M+/43PdwHUARtJ7f4nIiIizhAHBgINH3/j8y0Ap6PKX0RExGncwCnbf+PzCcAJZkcoIiIiWXH89v+zfRdAEdBEaglgERERcZYgUPnR18+0AByCKn8RERGnKgAO+Ph/tk8AjjA7MhEREcmqIz/+j+0TgP3NjkpERESy6pO6/uMxACVAC5oBICIi4mQxoB/Q+XELwN6o8hcREXE6DzATPu0C2MvsiERERCQn9oZPE4ApabyQiIiI2Mdk+DQBmGx2NCIiIpITkyCVABQAo8yORkTsoTbg4c79B/LYoUPYq6rA7HBEpPfGAn6D1NP/u2ZHIyLWd9KQEq6bWUeF/9Mxw09t6uQHbzSwvitqdngi0nN7uEkNBtAWwCKyU5V+N7fvN5ArJlZR4PnsFiKjSn2cP6qcRBLeaAyRMDtYEemJJ9zAUR8VEZEvOKC2kAcPHsK0ysBOf8brMjiorohjBpXwelOIraGY2WGLyK694gbmAPuYHYmIWIvLgB9OquKGWf0p9bl69Ds1BR7OGVlGIgmvqzVAxMqWuYHzgYlmRyIi1lHmc3PHfgM5f1Q5htG73/UYBgfWFXHogGLmN3TRGlEaIGJBa1xAldlRiIh1jCrxMe/IoRw1sDit15leGeDFo4Zx3OASsw9JRL6oyg1cBvQ3OxIRMd/e1QU8dMgQBhZ6M/J6AbeLk4eWUuxxMb+hi6TZBygiH2s1gLXAULMjERFznTSkhFv2GUDA3cs2/x6aW9/JVxfW0xFVl4CIBaxxAUVmRyEi5jp3ZBm37Tswa5U/wBEDinnmiKEMLc5M64KIpKXQBfjMjkJEzPPV0eVcv1d/slj3f2JcmZ+5RwxlUr9A+i8mIunwKwEQyWPfHFfBtTPrcOWg8v9YbcDDY4cOZu9qLSMsYiK/AcT5dFMgEckT548q54971ZHDuv8zQvEkZ8/fyLzNXWafCpF8lDBAA3NF8s2cYaX8ZZ8BOX3y35FQPMkZL2xgfkO32adEJO8oARDJM/vVFvK/gwfjM7v2/0gwluCMFzeyQEmASE6p6V8kj0wo93P3AYMsU/kDFHhc3HvgIKZVaGCgSC4pARDJE7UBD/cfNIhSr/Uu+yKPi3sPGsSQIk0RFMkV690JRCTjPIbBP/YbkLEV/rKhNuDh/oMHU+5zmx2KSF5QAiCSB365Zw371hSaHcZujS31cef+A/FaqItCxKmUAIg43ClDS/n62H5mh9Fj+9cW8rMp1WaHIeJ4SgBEHGxgoZfrZtaaHUavfWt8BSdoF0GRrFICIOJQH/f727FP3QBu3rs/o0u1UKlItigBEHGo7+1Ryawq+y63W+x18ffZAzQeQCRLlACIONDYUh+XT6w0O4y0Ta0I8N0JFWaHIeJISgBEHMZlwPV798fvkCfn70+sYny53+wwRBxHCYCIw1w0pp+tm/4/z+cyuHFWbrYrFsknSgBEHKQ64OZHk6rMDiPjplcG+PpYdQWIZJISABEH+dmUGspsOOq/J34wsZJKvzOPTcQMSgBEHGJKRYCzR5SZHUbWlPncfH+i81o3RMyiBEDEIX46pRqHjPvbqa+OLmdUidYGEMkEJQAiDjC7ppDD+heZHUbWeV0GP5+qZYJFMkEJgIgD/HRy/jSNHzu4hD00LVAkbUoARGxudk0h+9hgp79MMYBLxmtGgEi6lACI2Nz39rD/in+9derQUgYVec0OQ8TWlACI2NjEfn4OzYO+/8/zugy+PsY+WxyLWJESABEb+/qYChw+8H+nvjyqnBKvbmEifaWrR8SmynxuTh1aYnYYpinxujhxSP4ev0i6lACI2NS5I8oo8OT3JXzGMOcufCSSbfl99xCxsS+NVOW3X00hAwo9ZochYktKAERsaGpFgHFlmgvvMuB0tQKI9IkSABEbmjOs1OwQLOMMnQuRPjGApNlBiEjPuQxYdvIoagNq+v7YtlCcpa0h3m8N835bmKUtYZa3RwjGEmaHljMVfjc1AQ8Bt0G5z43/o40hwonULT6aSNISiadKOE4orlt/vlMCIGIze1cX8NThQ80Ow/ISSVjTGWFpaziVGLSGeas5xMauqNmh9VmRx8WUigCT+/kZXepnVImX4SU+ags8n1T4PXX6Cxt4pr7L7EMSEykBELGZq6ZWc+mE/Fv9L1O2BGO82RTk9cYQrzcGebMpaNmnYZ/LYHZNIYcPKOLguiLGlvlxZ2jhh+VtYfZ7Yi2xpDWPXbJPCYCIzbx+3AhGl2pL3EwJxZO82RRkQUM3L23t5o1GcxOCSr+b4waXcHj/Ig7uX0RRFqd6/uCNBv72YYtpxyrmUgIgYgPjy/2cOLiEk4aUaPR/loXiSRY0dDO3vpNn6jtZ25n9LgOD1KZO548q54QhJb1uzu+rxnCcSQ+vyquxEvIpJQAiFrVHuZ8Th5Rw0pBSxuiJ3zQftkd4elMnD6/v4M2mYEZvmAG3wfmjyrlgdD/T3uMfvtHAX9UKkJeUAIhYSF2Bh5OGlHD2iDIm9wuYHY58zqbuKI9u6OSh9e0s2tb3ZMDrMjh1aCk/mlTF0GJzdzXc1B1l6iOriSZUFeQbJQAiJgu4DY4bVMKZI8o4uK4oY4O8JLvWdka5Z3Ub/17T1quZBccPLuEX02oYZnLFv72LX67nP2vbzQ5DckwJgIhJxpX5+erocuYML6NUu9rZViIJ8xu6+PfqNh7d0LHTAYQ1AQ+/n1FryQ2MFjUGOXLuOrPDkBxTAiCSQz6XwfGDS7hgdDn71hSaHY5kWGM4zh0rW7n1wxa2BGOffP+w/kX8bfYAKvxus0PcqZmPrWZFe8TsMCSHlACI5EBNwMPXxvTjy6PKqNEKfo4XTSR5eEMHtyxvYc/KAL+eXmv5rp3rljZx9bvbzA5DckgJgEgWDS/2cvHYCs4fVU7A6jWA5LXN3TEmPrwSi66JJFmgRxGRLJhVVcB3JlRw9MAScjSlWyQt/Qs9HFRXxHObtTxwvlACIJJBs6oK+NHkKg6qKzI7FJFeO35wiRKAPKIEQCQDZlYVcPkelRw1sNjsUET67KiBxeoXziNKAETSMKUiwI8nV3HkAFX8Yn91BR4m9QuwuCVkdiiSA0oARPqgrsDDlZOq+NLIcsuP7hbpjf1rC5UA5AmtPiLSCwG3wXcnVPL6cSM4f5Qqf3EerU+RP9QCIGmrCXgYUOihriD1tbbAQ23AQ7nPTYnXRZHH9cnXHYklk3RGE3RGE3THE7RFEjSGYmwOxtgaitMQjFHfHWVNZ5SIieuVnza0lKumVTOw0DpLuIpk2j41BRoHkCeUAEiPDSryMq0iwNhSH6NKfYwu9TO61JezZWzjSVjfFWVle4SV7WGWt0d4uynEsrZwVjcyGVrs5bqZdRzaXyP7xfn6+dwMLfbmZBtkMZcSPdmhIo+LfWsKmV4VYFpFgGkVBVQHrLmMaTiR5L2WMG83B3ltW5AXt3TTEIql/boew+Cb4/rxo0lVFHjUWyb549wFm3hsQ4fZYUiWKQEQINW3vXd1IfvXpsqelQE8hn07uJe3hXmxoZsXt3TxwpZuumOJXv3+1IoAN8yqY5K25JU89JsljfxmSaPZYUiWKQHIY+U+NwfVFXLUwGKOHVRCiUN3pAvFk7ywpYunNnXy+MYOtoXiO/1ZA7h4bD+unlaDT0v4SZ56YF07Fy6sNzsMyTIlAHmm1OvipCGlnDaslNk1BbZ+yu+LaCLJ/IZu7l7dxuMbP7t16+AiL3/dpz+zNQpa8txrjUGO0PbAjqcEIA94DIND+xcxZ3gpxwwq0aY0H2mJxLl/bTt3rWpjbJmPa2fW5WxAo4iVbQnGGPfgSrPDkCxTAuBgtQEP548q5yujy6kr0IQPEemZRBJq7v2AWFLVg5OpVnCgqRUBzh9VzpnDy/S0LyK95jKg2OuiNRJP/8XEspQAOIzXZfDCUcPMDkNEbE4JgPOpw9NhCjVfXUQywKmzguRTeocdpkBN/iKSAX5Ng3U8JQAOoxYAEckEM/fdkNxQbeEwhR5l7SKSvpgSAMdTAuAwBW69pSKSvpjqf8dTbeEw6gIQkUzQDADnU23hMBoEKCLpiiSStISVADidEgCHybOl/UUkCxqCMS0RmweUADhMNK7LVkTS0xCKmR2C5IASAIfRwB0RSdfK9ojZIUgOKAFwmKim7ohImt5rDZsdguSA9gJwGCUAYiVJUv3Jm4MxtnTH2BSM0hJO0BqJf1RS/90VSxCMJQgnkkQT0BVL7PQ1A26DIo+LEm+qFHlcFHpcVPrdVAXcVPs91BV4qAy4qQ14GFDowadV7XrlfSUAeUEJgMMoAZBcCyeSrG6PsKrj4xJlVUeEtZ1RtoZipn8m3Qb0L/QytMjL0OJUGVniY3yZn9GlPiUHO/BeixKAfKAEwGGi2r9bsqghFOO9ljBLWkIsaQnzXkuIlR0RrDz2NJ6EjV1RNnZFWbj1s//mMQxGlngZX+5nQrmfqRUBZlQWUOF3mx22qb40soxrlzaZHYZkmQGa7eEko0t9vH7cCLPDEIfYEozxYkM3Cxq6WNDQzbrOqNkh5cSIEh8zKgPsWVnA3tUFTO4XIN8aCq58s4FbPmgxOwzJIiUADlPpd7Pq1NFmhyE21RiO80ZjkFe3BXlhSxfvNod0gwCKvS5mVBZwUF0hB9UVMaUigNPzgSRw2WtbuGNlq9mhSJYoAXAYlwGNZ47Lu6cV6Zt4EhZt6+bJTZ08t7mLZa1h3RB6YEChh6MHFnPMoBL2qy107Na58SRc9HI9/13XbnYokgVKABxo1amjqczzPkzZuVA8ydz6Tp7Y2Mnc+k6ateRrWoq9Lg7rX8TRg0o4ZmAxJV5nza6OJpKc99ImntzYaXYokmFKABzoteNGMKbUZ3YYYiHxJCxo6OLeNe08vrGDjmgi/ReVLwi4DQ6qK+LM4WUcM6jYMTMMQvEkJ81bz6vbgmaHIhmkBMCBnjp8KHtXF5gdhljAm00h/r26lf+t69DubjlW6Xdz8pBSzh1ZxtSKgNnhpK0pHOeIuetY1aFVAp1CCYAD/fuAgRw7qMTsMMQkW0Mx7lvTzl2r21jepvncVjC9MsBXR/fjlKGlBGy8Y+eqjghHzF1Hk7qNHEEJgAP9aa86zh9VbnYYkmOvNwb524ctPLy+g4gWhLKkfj43Z48o46Ix/Rha7DU7nD55dVuQk+atJ2TlxR+kR5QAONBlEyr52dRqs8OQHIgkkjywtp2/fdjCO80hs8ORHvIYBqcMLeHSCZXsUe43O5xe+9+6dr66sF6Vh825gZ+bHYRkVl2Bh5OGlJodhmRRZzTBXz9s4asv1/OfNe1sCWr7VjtJAEtbw9y+opW3m0IMLvIyqMg+LQLjy/24DFjQ0G12KJIGtQA40NSKAC8cNczsMCQLmsJxbl7ezK0rWmnToD5HObiuiJ9NrbbNgMEkcPb8jZoeaGNKAByozOdm3WlaDdBJOqMJbl3RwnVLm2jXFD7HMoATh5Tw0ynVjCyx/lTezmiCQ59eywftmhlgR0oAHGr1qaPzfkMTJ+iKJbjlgxZuWNasaXx5xOsyOH9UOd+fWElNwNp7ti1vC3Po0+t2uYWzWJPGADjUiUNK6V9o7RuH7FwiCf9e3ca5CzbxxMZOjbjOM4kkvNUU4h8rWokmksyoKsBj0UWFqgIeRpT4eGR9h9mhSC8pAXCofWoKmNjPHn2J8lkLGro5b8Embl/ZSqeeqvJaNJHkpa3d/HddO6NK/YywaLfA+DI/HdEErzdqpUA7cdai1fKJxS1aAMZuNnfH+PJLmzj+ufUsbtGUPvnUms4opz2/gfNf2mTZGR8/n1rNNJsMYJQUJQAOpQrEPhJJuGNlK3s9vpqH1Ywqu/DQ+g72fHQ1f3q/Cav1CnldBv/YbyDFDtsMyck0CNChynxu1p422vF7ltvdkpYQ31m0hbe1iI/00pSKADfN6s/EftZaSOjOVa1csmiL2WFID2gMgEOF40nOGl5GuU8zAawolkxy/bJmvvbyZjZ1W7NJV6ytIRjjztVtJJKwT00hVhkjOKUiwIftEZZpHwrLU1uNg6kbwJrWdEY57tn1/PydbVqzX9ISTST5zZJGjnlmHWs6o2aH84k/zqy11cqG+UoJgINpbXjr+ceKVvZ5fLX2VZeMWtQY5MAn13Df2nazQwFSXZA3791fXZAWpy4AB0sk4Usjy80OQ0itmPbNVzfzx/ebiOmhX7IgnEjy6IYOPmyPcFBdIQG3uc93Q4u9bA7GeFcPIpalQYAO5nUZrDttNIUeNfSYaXlbmPNfqme5+kQlR0aU+Lhr/4FMMHmnwY5oglmPr6Ze41wsSTWDg0UTSV7TwhymemBdOwc9tVaVv+TU6o4Ih81dx3/XmdslUOJ18fsZtWafDtkJdQE43OAiLwfUFpkdRt5JAr9d0sgP32hQk7+YIppI8siGDrYEYxzavwi3YU6P/JhSPx+0hVnepg2DrEYtAA6n/bpzryuW4Nz5m/jNkkb1r4np7ljZygnzNtAQMq8Z/g8z66jS5mSWowTA4d5qCtGp7WNzZkswxpHPrOPxjVrRT6zjla3dHPzUWpaYNDW40u/mZ1OrzT4N8jlKABwukkjy7OYus8PIC2s7oxzz7Hre0z4MYkH13TGOemY9z9Sbcz84Z0Q50yu1V4CVKAHIA09t6jQ7BMd7pznE4XPXsrpD/ZxiXV2xBGe9uJF/rmzN+d92GfDr6bVaG8BCNAgwD9QHY3x7fKVllgp1mle2dnPy8xtojairRawvATy9qRO3YbBvTWFO//bAQi9rO6O816pWMitQC0AeaA7HWbRNgwGz4dVtQU5/caPGWYitJIFrFm/jW69uJprj5aivnlZNiXYMtAS1AOSJfn43h/TXdMBMenlrN6e+sJGumCp/saclLWHeb41w/OCSnE0TLPK4MAx4cYseSsymNCxPPLiuA+07kzmvbO3mtBc20q3KX2zu8Y0dnLdgE+Ec3iC+Oa6CIdosyHRKAPLEpu4oL2/rTi3+rJJWWdYW5qz5m1T5i2M8tamTc+ZvJJRI5uQa8rsNrpxcZfZh5z0lAHnEKjuF2dmm7iinPb+R1kjc7FBEMurZ+i7OfnEjoXhuWgLmDC9jbJnP7MPOa0oA8siD69pzdnE7UVM4zknPbWBTt3X2XRfJpHmbuzh13oacjGtxG/CjyVocyExKAPJIRzSRWhPAAs3odivhRJIzX9jIinbN8xdnW7i1m7Nf/GhMQJavqxOHljC5QosDmUUJQJ65fUULqUlAKr0pV7y+hde1s6LkiRe3dHH+gk3EkgmyeV0ZJPnJFI0FMIsSgDwzf0s3Kzoipj9R26ncsKyZO1e2mf3WieTUkxs7+cHrW7N+fR0xqIhZ1QVmH25e0joAecjjMjhsgNYE6IlnNnXx7Ve2aFc/yUtvN4VIAvvXZXfFwOqAmwfWagOtXFMLQB66e1Ub3fGE6U/WVi/1wRgXL9yMxk1KPvvt4iZuWd6S1WvtyMHFjC/3m32oeUctAHkoHE8ysMjLNO3MtVOxZJI58zZp0J8IqdkBY8r8WaukDaDIY/D4Bm1clktqAchT1y9tJpbUo+3OXPN2I69u1aA/EYBEEr6xcDNvNIay9jdOG17KIK0OmFNKAPLU2o4oD6/TlMAdlec3d/Hnpc1mv0UilhKKJzn3hU1sCcayct153QbfnNDP7MPMK0oA8tgf32sCTK9vLVU6Igm+/fIW7ZsgsgNbumPMmbeJUCyRlevvK2PKqPC7zT7MvKEEII+91xzm6Y1qBdi+/PiNrWzqipn91ohY1rtNIb77akNWrr9Cr4tzR5eZfYh5QwlAnrv6rUYSSfMX2rFCeaG+i7tWtJn9lohY3r2r2rn+vWaycR1eMLYMl2H2EeYHJQB5bmlLmIc0/5b2SIJvLNR8f5Ge+vmb23huU1fGX3d4iZcD+md33QFJUQIgXPN2U2pGgAWa4M0q17zTSL2a/kV6LJ6EixZsYXMWBgVeMFbdALmgBEBY2R7h1uX52/S9rDXCbXl8/CJ91RiKc+GLmV8s69ghxfQv9Jh9eI6nBEAA+PU7TTSG46Y/iZtRvv/qVqIa9i/SJy9tCXLt4qaMXpMet8G5Y0rNPjTHM0DdnpLylXFl/Gl2rdlh5NSDazo4//nNZochu1DqczGy1MfIUi8jS31UF7ipK/RQHXBTFXBT6HVR6DZwGQalvtQzTVskQTKZpDOaJJZM0h1L0B1Lsi0YpyEYoyEYY2swzpbu1H+vaovSHI6bfai25TbgsWMGM7s2c5v6bOiMMvn+NZqSm0VKAOQTro8u4n3r8mNnrnA8yZ4PrGFjp/r+raK2wMOe1X6mVQXYszrAlMoANQW5mRfeGIrzQWuElW0RPmyN8EFrhHebQmwNKjHoiQFFHhaePDSj8/iPfXwDL23RipzZogRAPmN4qZeXTx5Kocf5vUM3L23hR69uMzuMvFbmc3FA/0IOHJAqY8p9Zof0BWs7ory2NcjrW0MsagiytCVCTI+lO3Ts0GLuPmxAxl7v9uVtfHdhg9mH5VhKAOQLLp5Qzu/2qTY7jKzqiiaYcv9atunpLufqCj0cP6yYE4cVM7uuALfN5nx3xxK8vCXE3A1dPLOxi9XtUbNDspRbDqzlrFGZ6b9vDscZe/caIkq4skIJgHyBy4BHjxnEfv2d2xXwu7ebuebNJrPDyBvFXhenjijhzNEl7F1b4KiFXla2RZi7oZtnNnTx0uZg3ldW/fxuXj11CHUZGsV/5tx6nlyf+fUGRAmA7MTQEi/zTxpCud95XQEt4TiT/7OW9kjC7FAcb+/aAs4bW8rJI4rzolupORznwdWd3Leyg0UNwby9uR43tJh/H94/I6/1wKoOvvr8FrMPyZGUAMhOHTiwkP8dNQCPkx7XgN++1cyv9PSfNR6XwQnDivnO5HKmVQfMDsc06zqi3Leyg/tWdvBha8TscHLutkPqOG1kSdqv0x1LMOquNXRFlbBnmhIA2aULJ5Rx7b41ZoeRMcFYkon3rKExpL7/TAu4Dc4fX8a3J/VjcLEWcdneS5uD3PJeK0+s68z4ojlWVRlws+i0oVRnYBbH+c9t5sHVnWYfkuPoKpVdemlzMJUmOsS/V7Sr8s8wn8vgS+NKuWJaBQOKdEvZkf0GFLDfgALWd0S59f02/rm8jdaws59om0Jxrnh5K/88LP2ugKOGFisByALnd8pJWk4aUWx2CBkTT8INi1vMDsMxDOD0USW8OWco1+1Xo8q/B4aUeLl6VhXLzxnBdfvVMMjhLSUPre7k2Q3dab/O4YMLbTdbxA6UAMgunTQi/T48q3h0TSdrNWUrI6ZW+XnqhEHcekgdQ0q8ZodjOwUeg69OKOPtM4dxrcOTpytf2Zb2zIjKgJuZGVxlUFKUAMhOje3nY3yFz/S1+jNVblumDX/SVeZzcf0BNTx/yhD27l9g+ntq9+JzG1y4RxnvnDWM3+1bTX8HJgIrWiPcvKQ17XN11NAisw/FcZQAyE6lmv+Tjigr2yIs2JR+U2Q+O354Ea/NGcKXx5fiMsx/T51U/G64eGIZb585lJ/PqqTI66xb8+/eamZzVzStc3TEkEKzD8NxnPUpk4w6aWSx6U9ImSr/XNam6S59VFXg5p+H13HXkf2pK/KY/l46uRR4DS6b1o83zhzC6aNLMMx+8zOkK5rgp4vS2zFwj0ofg0uc10JiJiUAskOjy31MqLDeuux9EUkkufvDDrPDsKX9Bxaw4LTBqWRQcmZAkYdbD63luVMGMb3GGWsp3L+ig5fq09vY5+CBagXIJCUAskMnO+iG/9iaLhq15n+veFwGP5tVySPHDXT0ADWrm14T4JmTB/H7/aod0S3w45cb02qJ23eABgJmkv0/UZIVJ49yTvP/Ayv19N8blQE3Dx03gO/t2Q+XC9Pfv3wvbhdcNKmMV+cMZv+B9q4A320M8+Cqzj6fC7sfv9UoAZAvGF3uY48Kn9n3vYyU9nCCZ9dr8F9PTanyM/+0wRwwsMD0907ls2VoiZfHThjInw+sodDGrQG/fK2JWCLZp3MwqNijcQAZZN9PkWTNSSOLzL/bZag8traTcL6svZqmM8eW8MypgxhcqoF+Vi2GAV/Zo5T5pw1iRq09xwasaoty1wcdfT4H6gbIHCUA8gVHD3POfNv7V2j50J74xuRy/npoLQEtt2YLY/r5mHvyQC6b1g87vmO/eb2ZYKxvifm+Dt6mPNeUAMhnVBW42bM2YPqTTiZKUzjO/E3pjTp2OrcB1x5YzW/3r8KwwHum0vPicRtcNbuSfx1VR4nPXrfyzV0x/v5eW5+Oez+NA8gYe31qJOsOG1LomEVenlnXRSzNJUidzOsyuP3IWr42sRSz3yuVvpcTRxbx4umDbDdt97q3WuiIxHt9vCPKPZT7VXVlgs6ifMYRQ50zz3buOg3+2xmf2+CfR9Zqfr9DjCr3Mu+0gZwxxj7vZ3Mozt+WtPX69wxgUpXf7PAdQQmAfMJtwKFDCk1v2sxEiQPPZWAXMifyuQ3+eVQtxzlosKcKFPpc3HpELVfNrsQw+0PWQze/20Ywnuz1sU6uVgKQCUoA5BPTawP0CzjjI7Foc4iWkLP3W+8LjytV+R873DkDPeWzLtuznJsOrcHrsn4asC0Y5+7lvV+nY3KVvbo7rMoZd3vJiIMGO2d3t7nrusw+nZZjANcfUs2xI/Tk7/Ry7oQS7j++jmIbDA68/u1W4vTu+CbXqAUgE6z/6ZCcOWiwc0bXPr9Bo/8/7+p9Kzl3fInZYUiOHDKkkGdPG8igYmsvnLOmLcpDK3s3XXdsP6+mrGaAEgABoMBjMLO/M6b/dUYTLGmMmH1KLeXCSaVcOr3c9PdGJbdlQpWPJ04dwCCLr573pzdbe3VcHrfBuEp1A6RLCYAAsPeAAH6HZNSLNoc0/W87+w0s4LcHVpkdhphkWJmXJ06xdhLw7rYw83q5ZPfofl6zw7Y9JQACwAGDnNP8/3J9yOwQLGNIqYc7j6m1xYAwyZ5hZV6etHhLwF/fbe/Vz48oUwKQLut+GiSn9h4QAMMZT80L09xz3CkCboN7jq+jstAFaW3CKk4wtMzDk6cN4JgH6tnQETM7nC+Yu7aLDZ3RHm/2M7xc1Ve6dAYFn9tgz1pnjKqNxJO8tSVsdhiW8Mv9K5nksOlSLaEEq1ujbOqM0RpOEI4n8bjAhUGp34UB1BW5GVrmpa7Ijdo9PmtoqYcnThvAkffXU99prSQgnoTbl7Tzf7MrevTzw9UCkDYlAMLkah8FXmfcKpc1Rwhp9z+OGl7I16aWmh1Gr3VGErzXGGHxtgirW6Ns7Y5T3xljW3ecTZ0xuqM9f2/9boMhpR6GlXmZUuNjz1o/02r9DLT4qPhsG1rm4YGT6jjyvno6ItZaK+NfSzu4cu9++HowHml4uRKAdOX3lSAAzBpgz21Fd2TxNo3+ry1yc/MR1bZ4+l3bFuWZtUEWbgry7tYIa9qiZGr8ZjieZEVLlBUtUZ5Z++kAs7oiNzP7Bzh4SAGHDClgRB5WJBOrfPz7+FpOe2gLEQslzFu74zyysovTxu5+SePaIjeFXqNXSaF8lhIASSUAdqgteuDdbWr+v+6QKqoK3WaHsUOJJMzfEOSJ1d08u7ablS3RnMewpSvOoyu7eHRlarGooWUeDhlSyDEjCzloSIFjZsPszkFDCrjx8GoufmqrpUaI3La4ndPG7T4BMEh1AyzVlN8+UwIgTHPQqlqLt+b3zeC4kUUcP8p6y/yub49x19IO7lrawUaLDUBb1xbj9iXt3L6knVK/i6OGF3Li6CIOG1ZIgcfZycCZ44vZ2BHj6oXNZofyiYWbQixrijC+B/P8a4vcLG00O2L7UgKQ58oDLoaUOeNjkEjCkjzuAij2ufj9IZVmh/EZL6wP8sfXW3lxQzBjTfvZ1B5OcN/yTu5b3kmp38UpY4o4e0JJapaMQ12xVzmrW6PctbT3a/Jny73LOrlqv90PBqwqsGZLl104484vfTa52o/hkIecNa1RuqLWGtSUS/+3bz8GWmSe9zNruvndolYW2XhNhvZwgjuWdHDHkg5G9fNy7h4lnDepxJGVznWHVrFkW4R3t1qjC+3+5Z38bL8Kdrd8hVW7uuxCCwHluck1zpkmtqo19/3JVjGqn5evTjF/1P8bm8McfPcmTn1wi60r/89b2RLl5y81M/5v67n4qW286bCppgGPwV3H11Jukd1AN3bEWLhx9+t5ODEZyyVrvNtimim1vtQCQA4o+ZwA/Gz/fnjdmHbuW8JxLn12G4fdu8lxleP2wvEk97zfwcF3b+LCJ7fSHomb/rnPVBla7ubvR1fv9qk7V/6zvHO3MVcVqgpLh85enhtX4aAWABNGlFvBXgP8nDDavIF/977fyZ7/2Mjtizts0c+fKfct62Sff23ilU3Oaek4ckQh359VbnYYADz8YReh2K4/UOoCSI8SgDxmAKMrPRgGjij52gJw9QGpvtJcn++uaIKLntzGRU9uoykYN/s0mGJDe4xj/rOZXyxsIZZMmn4NZKL8eN9+HDTE/L1B2sIJ5q7p3mWs1WoBSIvOXh7rX+ymyOucj4AZc8rNts/AAPsOyv0I9bcbwux3Zz33vt+7fdydKJ6E37/ayuH3bHZEK5TLgL8cXUWp3/x7w3+W7frzVewzP0Y709nLY6Md1PwfTSTZ2G6t+eW5cPmsspz/zfuWdXL43c6o7DLpzc2ppOipVb3b1taKBpV4+N3B5k8pfXZNcJcr/eXLok3ZogQgj42u8Kb6ARxQtnTFsdCKpjkxsdrHESMLc3qe//J2O197YhvhfDvZPdQZSXDGgw38+pVW06+JdMs5k4o5YYy5i0oFY0nmrQvuNEa/wxdqyjYlAHlsqEMWAAJo6Mq/PuhLZpblbAXneBIue6aJHzzXlFcD/foiCfxqYQvfeKrRUuvs98V1h1VSUWBuNfH4LlpUfEoA0qIEII/1L3Gb/pSRqWK1rU2zrczv4qSxRTk5t0kDLp3byK3vtJt92LZy15IOjvnPFrZ2x02/Pvpaaovd3HhUtann8alV3cTZcXxqAUiPEoA8VlfkJvW8Yv+ypTO/WgDOnlhMoZeMn8fPlyRJLpvbyD8XW2eZWDtZtCnEIXfVs7Y1itnXSF/L8aMLOHSYebMCGrvjvF4f2mFsfs0CTIsSgDw2oMQ5V8/mPGsBOH/K7ndLy4Qfz2vmtndU+adjXVuMo+7ZYutBk788uJ+pCwQ9tmLH3QA+59zCTKEEII85qQtgSx6NAZje38+Eal/Wz+ktb7Vz4xtq9s+ETR0xjr5nCytaoqZfK30pE2t8nD0xN0nnjjyxsnuHcXXuYoaA7J4SgDw0tdbHw3NqHTWHtiWUP5sAnTyuMOt/Y/76ED+a12L2oTrK5s44R9+9hQ+a7NkS8JP9y03bHnlFc5Q3N39xiekPbXourcI5NYDs1rByD7efWM38rwzgkOEFpj9VZLK0h/MjATAg64P/1rfHOO+hbcQ03D/jGrriHHPPFpY12a8lYGCph69MLTHt3P1yQesXBgP+9S21UKVDCUAeKPQa/PSAcl6/cCCnjS/CieNmOyL5kQBMq/MztDx70zdjiSTnPZS/S/vmwtauOKfc18BmGw5cvWzvMtNaAZ5dE+T0+xtYsD7E4oYI3326ifve7zL7lNiacyaCyw4dP6aQ3xxWwRAHzfnfkbY8aQE4fuxHC/9kybWvtu2wqVUya2N7jDkPNPDUuf0p9NonJa8rcfOVaSXc/Lo5T97PrA7yzOrdbxMsPaMWAIeqKHBxx0nV3H1qjeMrf4D2UH40Vx88PHvr/r/bEOG3L7WZfYh54+0tEb76yDbbLaz03b3LtASvQygBcKCjRxfy2tcGcup4c5fxzKV8GANQFnAxtc6fldeOJZJ8/bFGonarjWzusQ+7+enzzWaH0Sv9i92ctkf+3FuczPmPhnmk1O/id4f345zJH0/XyY+beTiezIuKa/8hAdyu7BznP97p4L2tEbMPMS9dv6idcVVevpSjtR0y4ZK9Srl7cWee3GGcSy0ADnHI8ACLvtZ/u8o/f8TsN5aqTw4clp3m/7ZQgl8taDX78PLaFXObWWGjKW171Hg5dIR5qwNKZigBsDkDuHL/Mh48q5ZBZR7TpwqZUaLJ/HgOmTEgO4v//G5hG03dzu9CsbLuaJILH2lMfZYtcE31pHx9pnlTAiUzlADYWKnfxb2n1/D/Dig3dZlOs+XDfHWvy2BirS/jr7u5I85f39BSv1bw1uYIv5pvn0GYh40syIsBxk6mBMCmRlV4ee78Oo4Zo2a4aB50AYyv9hLIwvzrm15rJ2zzLWud5LqX21iwLmR2GD3iNuC8qfnX5egkSgBs6PixhSy4sI5x1V7TmwGtUPKhC2BK/8w3/7dHEtz+dqfZhybbSSTh6481EYzboyvgy9OK8agWsS29dTZzxb5l/Pv0aket45+ufBgEOLbSm/HX/MdbnXkxfdJu1rfGuP4VeyxxW1fs1mBAG1MtYhMG8MvD+vGzQ8oxLJD5W6kYefApHlGR+QGe/3pHT/9Wde3CNja0x0y/tnpSzpikNQHsKg9unfbnNuCm4yu5dJ9Ss0OxpHxoghzeL7ODrV7bGLbVtLN8E4wluer5VrPD6JHjxhZS5DPMDkP6IA9unfZW4DG4Z041X5pWBEZSZQfFlwcDkYdXeDJ6zu5Zoqd/q7tvSRevbwqZfn3trhT64IQcbFEtmacEwMJK/S4ePreGY8YUmN3KZ+nic/i65OUBF8U+I2PnK56A/y3tNvuwZDeSwP97ttX066sn5aTxSgDsSAmARRV6De4/s5rZQ7Kz9ruTeB3+Ka4szOwBvrEpTHNQg//s4JX1YRZtsP7ujIeMDFBko10NJcXht0578rkN7jqjin2H+c1P7W1QvCbtT54rVYXujJ6vZ1fZY565pPz51Q7Tr7HdlQKvwaEjNRvAbpQAWIzXZXDn6VUcMUoXU095Hd4F0K8gs5fpc6u0n7qdPLa8m9XNMbPD2K1jx+meZTdKACzE7YK/n1KZupAskNXbpbhdOHoUcnmBK2PnqiOS4K3N2vXPThJJuOHVdtOvs92Vw0cFUlOUxTaUAFjIH4+t4LSJGkzTF1WFbrNDyJpMTnN8ryFKXN3/tvPvd7potfi4jZpiN3vUZH7BKskeJQAWcem+pVwwo9j0LN6uparIuR9lr9vI2Hl6d4ue/u2oO5rkkeXdpl9nuysHj8zOltWSHc69a9rIMWML+MXh5WaHYWvVRc5tAcjkTo/vNWjxH7v673vWn7p5iAYC2koeLKFibRNrvfzj1EpchvM3tMkmJ7cAuFyQmhWevmVblQDY1YtrQjR2xS39Wd9nsA+3C3Uz2YR1P0l5oKbYzf3nVlMcyFwTb74WK98U0xWJZW5nuPp2648mlx2LJeChZdbuBigOGEzQOADbcO5d0+I8LrhrTiWDy5zbdJ1LTu4C6Ixk5uk/mYSGTj2a2dn/bNANMEuLl9mGEgCT/L9DypithX4yVvqXOjcB6IpmpgWgKZggEldXk529sj6Ssc9DtsqswT6zT5P0kBIAExw2KsDlB2hnv0waVenc4Syd4cw8tbdYfBqZ7F40nuSNjdZeGnj6QCUAduHcu6ZF9S9xc+vplR8N7JJMGV3t3I9yczCRerpKUzypp38neHl9hAMtPN1uZJWXAq9BMKrPm9WpGsohlwG3n1Hp6AFrZinxu6grcWY3wKa2eEZeJ6YGAEd4dZ21WwDcLjQQ0CZUE+XQJfuWsN9wDZDJlpEO7QZoCyXoysBAQLUAOMOr68OWT+Ym1ikBsAMlADkyusrDTw4rM32AjpPLGAd3A9R3xNM+P36H75qYL7oiST5ojJp+ve2qjK9VAmAHzr1jWojbBbecWkGBFzK1oIt80egq536c17dEGV2VXhdHRaESAKdY1RRlj1rrft6d2hrnNHqXcuDb+5Ywa6hGxmbbOAc/dSzfFuPQMem9RkWRG8NIrQcg9ramOZaRgaHZMtLBybiTqAsgy4ZXePjJYZrylwszBvkcux3p+xlYw9/jglK/LnknWNNs7RUdh/Zz49ZHzfL0FmXZ748vp8BnmN4nlw+losjFCIc2PS7bmpk+3+EVzpwpkW9WN6c/JiSbxe81GODgxbmcQglAFh03oYCjxll3vq4TzXToKmTLGmIkMtB0r8FZzrCmydotAIASABtQApAlBV6D3xxXZnYYeWcvhyYAHeEEH2RgJz8lAM6wrSsza0NkU61D1+VwEme2l1rA9w4qYViFTm+uzRjizAQAYOHaMOPTnF+9R38lAE7QHUmSBEuPeemvjc4sTy0AWVBX4ubS/UvM7obLyzK5f2oZUid6ZV0k7fMze6gPj65620skIRxLmn697arUFeuDZnV6h7Lgx4eXUuQ3zL8C87B4PQYzHNoN8PKacNrnp7TAxXSHnp98Y/VdAcsKVb1Ynd6hDBtd7eHLMwtJLfijYkY5Yqwzl1ve0BpnRWM07fNzyGhnnp980x1JYPa1tqtSHnBmS5yTKAHIsP87olRNrCZz8syLJ98Ppf0aR4517vnJJ1bfba80oBuh1ekdyqDR1R5OmlxgetNbvpcJ/b0MKnfmAKQnloXSPj8zh/oYU6MBqnbn9xqmX2u7624Sa9M7lEHfO6gEl1q9LOEIhz7lvrI2TFNX+lvBnTejyOxDkTQV+ax9swkox7Q8JQAZMrDMzZnT9fRvlXKEQ7sBYgn4zzvdaZ+fc2YUqqvK5ooC1m4B8LitnaCIEoCM+c6Bxfj0gbeMQ8b4Hbv97R2vdaf9GjUlLk6bWmj2oUgfGQYUWPzz7XVmL5yjKAHIgIpCF1/Zu8j0jFvl01LkNzhkjDNHuy/dHOWd+vT3Brjy8BJt2GJThV4Dw4Xp19muitfiCYooAciIb+xXbPn+uHx05p7OfcL968LOtF9jdLWHM6Y59xw5WZkG2EkG6FOUJq/b4MJ9NO/fiuXYPfyUOHQu8n/eCrK5PZb2OfrR4cUE9KRmO0P7uTH7+tpdicTSH6wq2aUEIE3H7uGnptRlenObyhdLgc/gxEkFZn9EsiIcS3LzS11pn6OR1R5+cFix2YcjvTS00m369bW7Erb+fkV5TwlAms6fpelUVnbWdGcmAAC3vtxNS3f6T1nfO6RYmwTZjB02GovGrb1QkSgBSMuQfm4OHec3PdNW2Xk5YLSfAQ7dlaw9lOB3z3WmfY68HoOb55RpWqCNDK2wfgtAKKYEwOp0yafhnJmFWvjH4lwGzHFwK8DfXupifUv6ba0zhvj41QllZh+O9NCwSusnta1BJQBWpwQgDadN08I/dihf27fIsdPdQrEkVz3ZnpHz9K0Dizh7pmYF2MHYOq/p19XuSmtQgwCtzqG3xdz437tBs0OQHhha4ebYPZy5MiDAf94MMn9lOCOvdcMZZUwfovEAVjao3E1tifVv3W0hJQBWZ/1PkYVd81QHv3q6w+wwpAe+eaBzR7onk/Cd+9sIZ6DPNeAxePCiSiYNUBJgVTOG2uO9ac7AnhWSXUoA0nTNUx38em6H6c1tKrsu+4/yMWWQPW6cfbFia4zfPZv+gEAMqCx28fi3Kpk00Lnny86mD/GZfj31pGzpUAJgdUoAMuCXT3bwm6c7MHvhDZVdl28e4Owpm394poNFa8MZOVeVRQaPf7PC0UmTXc0Y4sXsa6knZVOrFgKwOiUAGfKLJzv4zdzMPIGpZKecPj1AbalzP/KxBFxwZysd4WTGWgLmfbeSs2Y6dxaF3bgMmDbE+gMAMVACYANu4OdmB+EU81dE8LoN9h3pMzsU2QGPyyCRhHkfRMwOJWtag0nWt8Q5aUpmBj163AbHTwrg9xjMXxFBE7vMNXWwl2/YpCXrZ491EImZHYXsihKADHtxRQS3y2C/0fbop8u3MnmQl3++0k1XxLlV2dLNMUoLXMwanpnPoGHA7JE+9hrm46VVEdpDzj13Vnf+7EIOHGOPxccGlruZ90GYiBoCLEsJQBbMXxGhqTPB4RMCGIbZ0cj2fG4Dr9vgmWWZmTZnVc9/GGavYT5GVGVuydgR1R7O36eQtmCCtzdEzT7EvPSLE0oZWG79RYAAJg30csq0AAtXRWnQgEBLMkCtetly0tQA//hSOQGvsgArCUWTTLx6G/Vtzn40KS908fxllYytzfy68S+tinDpf9pYtkVtvLlSVexi7TW1tlt9tDOc5Cv/auXxJSGzQ5HPUQtAFi3fEmPh6ggnTAmkkgALNMuppPq1C7wGTy11ditAKJrk8ffCnDwtQGlBZnesHFLh5sL9ihhV4+H9+hjNGdiUSHbtxCkBTpoaMP366W3xeQxOnVZAY1eCt9ar5chKlABk2frmOE++F+a4SQFKAs4dgW43kwZ5uOe1IG0OX6+8PZRk7vthTt+zgEJfZh8dXUaqmfdr+xcxtNLNsi3xjOxOKDt2xRHF7GHTBZpcBhw1IUB7KMlra5UEWIUSgBzY1pngf++EOGyCn+qSzD6JqfStuF0G1SUuHn7H+c2STV0JnvsgwknTAhT6jYyfS5cLpgz28o0Di9hvtJ9oHFZtixOzQC4wusbDCVMCjKvz0NCRoNumgz8LvAY3nl2O38YtiYYBh0/w09yV5I11SgKswEBjAHKmX6GLB75ezj4jNE3QCpJJOPLPzby00rnTArc3vs7DY5dU0L8s+y1RLd0J7n4txCPvhnhlVSSnyUBpgcGcGQV8ZXYBUwd/+sQciib56cMd3PRCd+6CyZAzZgS44/xys8PIiEQSzvtHK/972/nJt9UpAcixAq/BzeeUMWeGczensZOl9TH2+U2jJZ5Wc2FElZtHv13B8KrcjSRvDyZ5dnmYuUvDPP1+mIb2zJ/siiIXR0/0c+KUAIeO91Gwi4G35/2jlQfeslfl89A3+3HEBL/ZYWRMKJrk6OubWbRGLQFmUgJgksuPKOKqE0psN6LXib7/QDs3PW+/p8K+qip2ce9F5cw2acGq9c1x3tkQ5Z31Md7ZGOWdDVG2tPU8KQh4DcbVedhjgIc9h3g5YIyP8f09Pb6W3q+PMeOaRlOOvS9qS12suKYGj8OGEG1uSzD7N41ZSQilZ5QAmOioiX7u+Eo5pQFlAWZqDyaZfNU2tubRXGW/x+Cmc0o5ey9rLPPbFUmyuTXB1o44bcEkwUiScCyJz2NgAGWFLqqLDWpL3dSUuNJaXyOegPJLtxC3ydt96aFF/PqUErPDyIqFKyMc/efmvGmBsxolACYbV+fh7ovKGVeX+bna0nN3vRrkon+1mR1Gzn3tgEJ+e2pJXq1VsXJrnMk/32Z2GD226MdVTBrk3PvDLx/r5FdPdJodRl5yWKOS/SzfEuOA3zZx3xv26pN0mnNmFXDw2PwbnPn3+d0c+PsmPsijBX2unWufyubQ8T5HV/4AVx5TzIxh9pzeaHdqAbCQC/Yr5No5Jfg9+fM0ZiX1rXFm/KKJ1jycy17gNfjxccV897Ai3A59LEgm4f8e6uDauV1mh9IjhgEvXVmZ2v3P4d6vj7H3NfkzGNcqtA6Ahby9Psqz70c4eJyffoUOvQtbWEnARW2Zi0ffdfYKgTsSS8DzyyM8vTTMjGFeakvtsd58TwWjSS76Zxt/XxA0O5QeO31GgG8cbI+d/9JVXeKiqSvB61okKKeUAFjM5rYEd74SpLLYlReZv9VMHuTl/c0xlm/Onybx7W1uS/CPl4K8Xx9j+jAv5Q5IRD/YEuOEG1p4frl91nvwuuHui/tRUWT/899Te4/0cderQTrDapTOFSUAFhSJwRNLwnzQEOOQ8T4CPkxfxSufygFjfNz1asi2q8alKwks2xzj9peCdEWSTBzkoSgLKwhmu4RiSX7/VBdfvb2N+lZ7tS1/7cBCzpplv3X/0yl+L1QW52cLnFk0BsDiBle4+duXSzkwDweomemRd8KceUur2WFYQoHX4Jx9AnznsCJG1Vi/ayCegAfeCPHLRztZtc1+Oz6WFRosvqoqtWx4nkkm4dA/NPPqKnUF5IISABswDLhg/wKuObVEawbk0OX3dvCXPFogaHdcBuw32sc5+wQ4ac8AJRb7LHaEktz/eojrn+nmwwb7duFcf04pFx5gjfUZzPD88gjH/rHF7DDyghIAGxnUz81NXyrl8D3UGpAL0Tgcea2eRnak0Gdw4DgfR+zh47AJfkaa1DIQiSWZ/0GU/70Z4r9vhugI2ft2NmuEl+d+UJH3K4Qe/NtmFq3WdZdtSgBs6Jx9Alxzagk1pfnXRJhr9a0JZv+yia1arnSXaktdTBniZeoQD5MHe5g6xMvwKndaK/btSCwBy+pjLPgwwksfRnh+eYS2bmfcwrxuePknlewx0Nnz/nviqSVhTrmh1ewwHE8JgE2VFRr89IRiLjqo0HFrhFvN/A8iHPfHFs1R7qXSgMH4AR4G9nPTv9yVKmVuBvRzUVfmwuf+bHZQVpha9relO0lrd4LmziSbWuNsbI6zZluc9+vjLKuPEY4585Z1+VFF/OKUYrPDsIRkEmZf08S76+3blWMHSgBsbuIgD388q4R9R6tbIJv+NLebHz/QYXYY4lAja9ws+r9KCn153va/nYfeCnO2BuJmlRIABzAMOHGan5+fXMwY7SmQFckkfOXWNu57TUs2S2Z53TDvygqmazncz4gnYMKPGtnQbL+ZHHahdQAcYvnmOH97Icj79XGmD3fGAi5WYhhwzBQ/i1ZHWduoG5JkzlWnFHPqjIDZYViOy4D2YIIFH2owYLaoBcCBCn0GXz+kgO8cUaiBghnW2p3k0N+0sKxefZOSvoPG+Xjs8vK8H/W/Mxua44z/YRMJ1VJZoQTAwXweg9P38vODY4sYXWv9BVzsor4lwUG/bmGjmiYlDeWFBot+XsHgCl2bu3Lin1p55j37LONsJ0oA8oDHBafODHDJ4QXqZ8yQxRtiHP67FtqDunyk91wG3H9JGcdM9psdiuU9/FaYM29uMzsMR1ICkGemDPHw1QMLmDMrQGmB2h3T8dz7EU79c5tjp6VJ9lx9ajHfP6bQ7DBsIRqHoZc10tKlebiZpkGAeaahLcGTiyPc8lyQ1VvjBHwGgyvdjt0DPptGVLuZPMTDQ29GiOveJD00Z1aA380pzvgiSU7ldqUWf1qyQeNuMk0tAEJ5kcFxU/2cON3PYXv4CHh1Z+qNx98Jc/bN7UTUEiC7MX24l2d+WE6B5vv3yiNvhZlzo7oBMk0JgHyGxwWThng4ZIKP2aO97DvaR1mhbla78/SSCHNuUHeA7FxtmYuF/1fBwH5qbuut7kiSIZc20hXW9ZVJSgBklzwuGFHjZmx/D6Pq3IypczOy1kNpwKC00KCswKA4YODzKEl49O0w59zURlSTA+RzygoN5v6wH5OHaKGuvjrjhjYefStsdhiOogRAMuKBS8s4dqpGND/yZpjzbmlXS4B8oshv8NgV5ew9SjNw0nHnSyEuuq3d7DAcRQmAZMTgShdvX1NBkV8tAfOXRznj+jbaNEUw7/k8cN8lZRw5WXt1pGtTS4JR32syOwxHUWeUZMSGpgR/eKI7lVLmeTlgvJd5PylnUIUur3zmdsHtF5dy5BSf6Z9JJ5SBFS6GV2vRpEzSHUoy5o9PBFmxRR3gABMGenju/5UzboBuWPnI44Z/XFTKKTPVLZZJ+49TN0omKQGQjAnHknz3zs5Un5IFnhjMLkOq3Mz7ST/2Ga2bVj4JeA3uvaSMM/bxm/4ZdFpRApBZSgAko+YtjXDnS9oy92P9igwe/0EZp+6lJ8F8UBIweOjyMo6dpj7/bFACkFkGGgQoGVZWaPDWrysYoPnOn3Hb8yG++68OYuolcaTyolTlP0uj/bMiFocf3dvJjU8HzQ7FMZQASFYcP93PfZeWmh2G5Tz3XoTzbu6guVNrBzvJsGo3//1eKRMGap5/NjR3Jjj7hnZeXBY1OxRHUQIgWXPnt0o5bZaavj9vXWOcOX9u5911WtvcCfYf5+WeS0qpLFGLVza8vTbGOTe2s2arms4yTQmAZE2/YoPXftmPQZW6MX5eMJLkW//o5J6FWtnMzr52SIBrzyvGq8keGRdPwHWPB/nFf7u0umaWKAGQrNp/nJcnf1Sm3QZ34s4FIS7/VxcdIV2GduJ1wx++VMxFhwbMDsWR1jXGueAvnbz8oZr8s0kJgGTdVWcU8oMTtPf5zqzZGucrf+lg0Qp1CdjB4EoXd3yzhNljNdgv08LRJNc/GeK3D3dr458cUAIgWedxw7M/KWfWaA2Q2pl4Av70eJCrHlBzp5WdONPHX75aQr9iw+xQHOf5pVEu/1cnyzbpAsgVJQCSEyNq3bz6q3JKArpx7sprK2N85eYOVjfoJmglRX6DP5xXxPkHqck/01Y1xLnyri4eeytidih5RwmA5MzZ+/m57RslZodheZ2hJFc/0M3NTweJa7ag6WaM9HDbN0oY018j/TJpdUOc3zwU5J6FIa2NYRIlAJJTd3yrhDmzNTWwJ95ZG+Nbt3Xy1mqNDTBDaYHBz04v5OLDCzSINYPeXB3j+ieD/G9RWBW/yZQASE6VFRq8+utyhmlXrx6JJ+Avc4NcfV+3Zgrk0El7+bnuy0X012qWGdEVTvLwaxFufS7EKxrZbxlKACTnJg/18PzPyyj0azxAT21qTnDZHZ08+ob6SbNpWLWba88v4hit5Z+2cDTJgmUx7ns5zEOvhZXAWpASADHFnNl+/nlJsdlh2M7LH8T4wyNBnnw7QlJXbsZUlhhceXIhFx8ewKfJKn2STMKKzXFe/iDGU+9EeHZxlE5V+pamBEBM8+tzCrnsuAKzw7Cl9zbEufaRIPe/on7UdBT5Db5zTIDLji+gtEAtUj21pTXBqi1xVjckWNUQ5501cV5bGaW5U9WJnSgBENO4XfDIlaUcOkkLqvTVum0JbngyyF0vhmnt1qXcUwU+gy8f5OfKkwuoK1c///YeeDXC+Td2UBIwKPQb+L0GLiM1O6U7nKQ9qM+ZUygBEFNVFBu8dE0ZI2o1KDAdoWiSx9+McttzIeYt0SCrnSkrNPjSgX4uP6FAA/x2oLE9wbQr2tjWrvmn+UAJgJhu8lAPz19dSpEGBWbEm6tj/P2ZEA+8ElEf7EeG1bi49NgCzjvIr8/ZLpz+hw4NNM0jSgDEEk6f7eNf3ynB0L05Y7rDSZ54K8p9C8M8/U6UcDS/LnWfB47Z08eXD/ZzxFSf5vLvxt3zw1xwU6fZYUgOKQEQy/jFWYV8/yQNCsyG1q4kj7we4b6FYV5YGnX0wMEJg9ycf0iAs/f3UVWqWr8n6psT7HlFK61dqg7yiRIAsQzDgH9dWsLpszUHO5vaupM8tzjK029HePqdKFta7N/fO3GIm+Nm+DhhLx97jtA8vt5IJOG4X7Zr7EgeUgIglhLwGjzx01Jmj9NNPBeSSXh3bYyn34ny/JIob6yM2WLcgMcNs8d5OW6Gj+NneBmuQaR99pv/Bfn5vd1mhyEmUAIgllNRbPDCL0sZM0A39VyLJ+DD+jhvr46xcHmMVz6IsWxj3PRFhzzu1GDRQyZ5mD3Oy+xxHsqLNGAkXQuXxTjy6nZHdwnJzikBEEsaXuti/jWlVJepD9dsTR1Jlq6PsXxTgvc3xFm+Mc77G+JsbctO10FpgcG4wW72GOxmwmA300d6mD7Sg1/LRWRUU0eSmVe0Ud9s/y4g6RslAGJZM0d7ePpnJdozwKKaO5NsbExQ35ygoTXBxuYEW1sTbGpKsrU9QSwG7cEk8USStu4kyQS0dicp8hsMqnRR18/FgAoXAysM+le4GFHrZvxgN0OrlfRlWzIJJ/+mg6feUr9/PlMCIJZ24iwf91xRjEs5gEjG/PZ/QX52d9DsMMRkbuDnZgchsjMfbIrTHkxyxFS1/4pkwty3o3zzli7Tx3WI+dQCIJY3dqCbd68vMzsMEdv7YFOcA65sp037RgigzjaxvONm6ulfJF3NnUlO+VWnKn/5hBIAsbxjZ2hhIJF0xBPwlT93smqL5vvJp7TailhaZanBrHGeVGeViPTJZbd18bRG/MvnKAEQSztmhhe3S02WIn31q/tD/O2psNlhiAUpARBLO2aGV0//In30z+fC/OJeTfeTHdMYALEsw4ADJ2kAoEhfPPlmlG/9pVvT/WSn1AIgljV+sJuKEj3+i/TWGytinPuHLq3xL7ukFgCxrL21I6BIry1eG+eEqzvpssGujmIuJQBiWfsoARDplSVr4xz9fx00d6jyl93THVYsa5/xbgz1AIj0yAcb4xx3VSdN7ar8pWfUAiCWVFliMKq/2+wwRGxh2YY4h/2/ThpatLWv9JxaAMSS9hjqxlB6KrJbyzbEOfKnnWxtVeUvvaMEQCxp3GA32qdKZNfeXBnnxKs62dama0V6TwmAWNLYQXr8F9mVF5fEOO2aLtq1uY/0kRIAsaSxg9xaAVBkJx5dFOXc33UTiqjyl75TAiCWNG6wWgBEduSueREuvr5bi/xI2pQAiOX4PDCo2qUWAJHtJJLw8ztD/O7+kJb3lYxQAiCWU1Pu0vx/ke10hZJccF03D72sLX0lc5QAiOXUVRh6+hf5yObmBKde3cWbK9TmL5mlBEAsp6Zc/f8iAO+sinPqL7rYuE1z/CXzlACI5dSW6/Ff5LanInzvr0GN9JesUQIgllNdboChm57kp85gkktuCnL3PPX3S3YpARDLKfSrBUDy0wcbEpz1q26WrlN/v2SfEgCxnIAfDQKUvPPv56JccmOQrpBavyQ3lACI5QS8qv0lv0RjcMEfus0OQ/KMEgCxHL9aACTPdGugn5hA863EcvxqAZA8EwybHYHkIyUAYjnxhJ6GJL80tmuev+SeugDEcsJR1AUgeWVTo5JeyT0lAGI50VgS0A1R8sfGRk37k9xTAiCWoxYAyTerNyvhldzTGACxnKBGREueWbJaLQCSe0oAxHKa2pUASH5ZrARATKAuALGcxrYkhroAJE9sbk6yuUlJr+SeWgDEcpradDOU/PHS4pjZIUieUguAWM62tqQGAUreWLhUzf9iDrUAiOVs2qZFUSR/zHtLLQBiDrUAiOVsa0vSEUxSUqhmAHG21fUJlq9XwivmUAIglrSuIcHE4WqgEmd79OWo2SFIHlMCIJa0pl4JQH1jkktvCPH2igQHTnFz4FQ3B0xxM6wuv8+Lkzz6spr/xTwGWnNVLOhXF/m54kyf2WGYIpmEu5+NcvmNYZo7vnh59q80mD3RzaHTPew7yc34oUoI7GhzU5LhZ3Siva/ELGoBEEt6b01+9ouu3Jjgm9eFeOGdnY8M39yU5L8vxvjvi6mnx7oKg30nudl3kpvZE91MG+3WOgo2cPezUVX+Yiq1AIglTRrh4s3biswOI2dCEfjtv8P8/u4IkTRbhftXGhw41cPsSW72Gu9i0gg3XqX6ljPtgi6W5mmiK9agBEAsyeeB5idL8OVBxfXEqzG+f1OYFRuzUxkU+GHaaDczx7uZOc7NrAkuhmocgalefCfO4Zd1mx2G5Lk8uL2KHUVisHhVnBnj3GaHkjXL1ia48pYwT76a3YFgwTC8/F6cl9/7tFuhrMhg4ggX44e5mDDMxZ5j3Uwd5aIwoL6DXLjpwYjZIYioBUCs64/f8fOtU5w3ELC+Mcn/3RrmrrlREhZqAXa7YPRgF+OGuhg10MWIAS5GDnQxaqDBwGoXLjUaZMTGrUnGnNVJTAsAisnUAiCW9erSBN86xewoMqelI8mf74vwp/ujdIesl3fHE7B8XYLl676Ylfi9MGKgiyE1Lqr7GdRVGNRVGtSUG/SvclFTblBebBDwQ0mhgce5DTdp++vDEVX+YglqARDL6l9lsPaBItuPaG9sS3L9fVFufjBKe1d+XG6GAeXFBj4PFBZ8+gZ2dic/qfy6Q0nCUbjhe34uPtFrdsg5EYrAyNO72NaaH58DsTa1AIhlbW5M8t7qBJNG2rPteU19ghv/G+X2x2N0BvPrhp9Mplo8AGjZ9bF/7/owYwa7OHhP5zcb3PtsVJW/WIYSALG0pxbFmDTKXuMAXloc5/r7ojz6Uoy4hfr4rSoag7N/FmLBLQWMGmTPZK+nx/nrO7X0r1iHc682cYRnXrNHZ2lrZ5JbH4ky44JuDvl2kIfmq/Lvjab2JEd8N8jGrc59Ov7Xk1HW1OtDIdahMQBiaV4PbHm8yJI7A4Yi8MxrMe6eG+PRl2JE9HCXtkkjXTx3YwHlxdZ7v9MRicKEs7tYv0W3W7EOdQGIpUVj8OzrcU4+0Bof1XAUnn0txv3zYjy2MJ43g/pyZcmqBMddHuLx6wKUFTknCbj98agqf7EctQCI5Z18oIf//DJg2t9fU5/guTfiPPdGnGdfi9OmSj/rpo1x8eQfC6gotX8SEI7CuDldbNqmz41YixIAsbyAD9Y/UpSTZuFkEj5Yl2DR0jivLk3w/JtxVm9Sv60Zpo9z8cgfCqgut3cScOP9Ub7357DZYYh8gRIAsYVbfujnguMzO1c8FIEP1yf4YF2C99ckeHN5nEVLE59OXxPTjR7s4vHrAgzrb8/xys3tSfY4q5umNn2mxHqUAIgtzJzgYuHfC3r8810h6Aom2daSZMPWJFubk2zcmqShOcm6zQmWr0t91Uh96+tfafDg7wPsOdZ+ScBlf4xw0wMaHSrWpARAbKUoAD5vqkm4vOTT7yeT0NYJkWiSrpDZUUqmFQbgbz/yM+cwawwG7YllaxPseV5Qy/6KZSkBEBFbMAz4/rlerr7Yh9sGjQHHfDdkm3UsJD/Z4DISEUm18vzuziiHfztk+RH1jy6Iq/IXyzOAOEoERMRGqssN/vZjP8ftZ739AyJRmHJukJUbNMBELC3hAiJmRyEi0hvbWpOc/IMQZ/0kTHNHMvUoY5Hy2zujqvzFDsIG0AaUmh2JiEhfDKox+NPlfk48wPzWgA/XJ9jz3CBhDfwX62s1gG1AldmRiIik45CZbq6/wsfYoeb0aCaTcOQlIZ5/Q33/YgsNLqDT7ChERNI17/U4M74U5Ec3RWg1YTGnOx6NqfIXO+lyA+cB/c2OREQkXbE4vLw4wW0Px/C4k0wZ7cKbg6UDGpqTnPqDMEGt+Cv2sdINnAqMNDsSEZFMCYbhmUUJbn8kRiIJk0a78PuMrA38+8avI7z+vgb+ia0sdgPHAJPMjkREJNO6gvDcawn+/mCclg4YPcRFWYY3lXp0QZyf/kWj/sR2FrmB2cA+ZkciIpItwTC8/G6Cm++P8d6qBKXFBsMHujBcpPXk39Se5PjvhukMmn2EIr021w2MA442OxIRkWxLJGHZmiR3PxnnjkdiNLdBZblBbWXfWgUuvibCq0vU9C+29G8DOAF42OxIRETMMrS/weF7uzlufzeH7eXG79v97zzyYpxTv69Rf2Jbxxqk+v8Xmx2JiIgVlBYZHLmPiyP3cbPXRBdjh7pwfW5pgcbWJFPmhNjaYu09CUR2YQ8DCAAdgH322RQRyZHSIoPp413sNdHFjAkuZu7h4vt/jHD/s5rzL7YVBT4ZDvs+MN7siERERCTr3gMmfdywtcTsaERERCQnFsOn2wBrDICIiEh+eA8+TQAWmR2NiIiI5MQrkFrOAqAYaEEDAUVERJwsCpQD3R+3AHSicQAiIiJO9zbQDZ92AQC8ZHZUIiIiklWf1PXbJwBPmx2ViIiIZNUndf32C2AXAk2kFgYSERERZwkClR99/UwLQDewwOzoREREJCvm8VHlD59NAECbAomIiDjVo9v/z+f3wKwFNgFus6MUERGRjIkBA4GtH3/j8y0ADcB8s6MUERGRjJrHdpU/fDEBALjP7ChFREQko+7//DeMHfxQGVBPalaAiIiI2FsXMABo3/6bO2oBaAMeMDtaERERyYj/8LnKH3acAADcana0IiIikhG37eibxi5+YTEwyeyoRUREpM/eBabu6B9cu/il68yOWkRERNLyh539w65aALzAamCQ2dGLiIhIr20CRgCRHf3jrloAosBNZkcvIiIiffIndlL5w65bAACKgVVAjdlHISIiIj22jdTTf+fOfsC1mxfoZBf9ByIiImJJv2IXlT/svgUAUgsCrQLqzD4aERER2a16YBTb7fy3Iz3Z9CdKanGgE8w+IhEREdmt7wBv7O6HetICAKmugkXADLOPSkRERHbqLWAmkNjdD+5uDMDHEsB3gaTZRyYiIiI7lCRVV++28oeeJwAAC4F/m310IiIiskP/Ahb09Id72gXwsUrgfTQtUERExEoagQmkpv/1SG9aAACagCvMPkoRERH5jO/Qi8ofet8C8LFHgOPNPloRERHhIeDk3v5SXxOAalI7DPU3+6hFRETyWD0whVQXQK/0tgvgY9uA89GsABEREbMkgQvpQ+UPPVsIaGdWASXAbLPPgIiISB76LXBLX3+5r10AH3MDTwKHm30WRERE8sg84Agg3tcXSDcBgNSUwDeBQWafDRERkTywAZhOL0f9f15fxwBsbyup0YddZp8RERERh+sETiLNyh8ykwBAatOBOaTRFCEiIiK7FAfOJbXef9rSGQT4eSuAVuDo3J8TERERx7sEuCtTL5bJBABSOwZ6gANyeUZEREQc7mfAHzL5gplOAACeB4qAfXNxRkRERBzuz8CPMv2i2UgAAJ4FaoEZ2TwjIiIiDnczcGk2XjhbCQDAE6QWCtoni39DRETEqW4k1e+flVV3s5kAAMwFQsBhWf47IiIiTvJb4PJs/oFsJwAAC4EWUisWZWraoYiIiBPFST31/zrbfygTKwH21FHAfaS6BUREROSzuoCzgEdz8cdymQBAalDgg2jZYBERke2tJ7XC39u5+oO5bpJ/A5hGapaAiIiIwIvAXuSw8ofcjAH4vG7gHlJrBexD7lshRERErCBJarDf+UBHrv+42ZXvYcA/gQEmxyEiIpJLDcAFpKbMm8LsUfnPAlPJ0YAHERERC3gImIiJlT+YnwBAakvDE4AzyMD2hiIiIhbVDFwMnAw0mh2MGWMAduZ94HZS3QGTzQ5GREQkQ5LAv4DjgZfMDuZjZo8B2JlZwJ+Avc0OREREJA1vAd8FFpgdyOdZoQtgRxaR2k3wQmCz2cGIiIj0Uj2pQX4zsWDlD9ZtAdieH/gycBVQZ3YwIiIiu9AI/AG4HgiaHcyu2CEB+Fgx8E1S2yJq2qCIiFjJRuDPwF9ILelreXZKAD7mJbVc4vdJNa2IiIiYZTFwE6lBfiGzg+kNOyYA25sOXAScTaqFQEREJNtCpNav+RvwHKlR/rZj9wTgY2Wk1hGYAxyEtaY3ioiI/cWBecB/gPuBdrMDSpdTEoDt1QCnACcCBwIFZgckIiK21A28ADwC/A+HLVbnxARgewXAAcCRwP6klh32mB2UiIhYUozUjnwLgKeB+disX783nJ4AfF4RqS0X9ya12uAkYCxKCkRE8k0U+AB4j9RAvleB17DJCP5MyLcEYEd8wChgODDso691QOV2pZzUuQqgLgUREasKknpiTwKtQNN2ZTOwFljz0deVQMTsgM30/wHQx12rp9WM7QAAAABJRU5ErkJggg==;" vertex="1" parent="1">
                    <mxGeometry x="75" y="1370" width="60" height="60" as="geometry"/>
                </mxCell>
                <mxCell id="28" value="" style="endArrow=classic;html=1;fontColor=#393C56;strokeColor=#E07A5F;fillColor=#F2CC8F;entryX=0;entryY=0.5;entryDx=0;entryDy=0;entryPerimeter=0;" edge="1" parent="1" source="11" target="9">
                    <mxGeometry width="50" height="50" relative="1" as="geometry">
                        <mxPoint x="380" y="1030" as="sourcePoint"/>
                        <mxPoint x="430" y="980" as="targetPoint"/>
                    </mxGeometry>
                </mxCell>
                <mxCell id="29" value="" style="endArrow=classic;html=1;fontColor=#393C56;strokeColor=#E07A5F;fillColor=#F2CC8F;" edge="1" parent="1" source="11" target="10">
                    <mxGeometry width="50" height="50" relative="1" as="geometry">
                        <mxPoint x="480" y="1140" as="sourcePoint"/>
                        <mxPoint x="530" y="1090" as="targetPoint"/>
                    </mxGeometry>
                </mxCell>
                <mxCell id="30" value="" style="endArrow=classic;html=1;fontColor=#393C56;strokeColor=#E07A5F;fillColor=#F2CC8F;exitX=0;exitY=0.9;exitDx=0;exitDy=0;exitPerimeter=0;entryX=0.5;entryY=0;entryDx=0;entryDy=0;" edge="1" parent="1" source="11" target="18">
                    <mxGeometry width="50" height="50" relative="1" as="geometry">
                        <mxPoint x="390" y="980" as="sourcePoint"/>
                        <mxPoint x="440" y="930" as="targetPoint"/>
                    </mxGeometry>
                </mxCell>
                <mxCell id="31" value="" style="endArrow=classic;html=1;fontColor=#393C56;strokeColor=#E07A5F;fillColor=#F2CC8F;exitX=0.8;exitY=0.5;exitDx=0;exitDy=0;exitPerimeter=0;entryX=0;entryY=0.5;entryDx=0;entryDy=0;entryPerimeter=0;" edge="1" parent="1" source="14" target="11">
                    <mxGeometry width="50" height="50" relative="1" as="geometry">
                        <mxPoint x="250" y="1340" as="sourcePoint"/>
                        <mxPoint x="300" y="1290" as="targetPoint"/>
                    </mxGeometry>
                </mxCell>
                <mxCell id="32" value="" style="endArrow=classic;html=1;fontColor=#393C56;strokeColor=#E07A5F;fillColor=#F2CC8F;entryX=0.5;entryY=0;entryDx=0;entryDy=0;entryPerimeter=0;" edge="1" parent="1" target="16">
                    <mxGeometry width="50" height="50" relative="1" as="geometry">
                        <mxPoint x="310" y="1170" as="sourcePoint"/>
                        <mxPoint x="380" y="1140" as="targetPoint"/>
                    </mxGeometry>
                </mxCell>
                <mxCell id="33" value="" style="endArrow=classic;html=1;fontColor=#393C56;strokeColor=#E07A5F;fillColor=#F2CC8F;entryX=0.58;entryY=0;entryDx=0;entryDy=0;entryPerimeter=0;" edge="1" parent="1" source="11" target="15">
                    <mxGeometry width="50" height="50" relative="1" as="geometry">
                        <mxPoint x="360" y="1180" as="sourcePoint"/>
                        <mxPoint x="410" y="1130" as="targetPoint"/>
                    </mxGeometry>
                </mxCell>
                <mxCell id="34" value="Publics" style="text;html=1;strokeColor=none;fillColor=none;align=center;verticalAlign=middle;whiteSpace=wrap;rounded=0;sketch=0;fontColor=#393C56;" vertex="1" parent="1">
                    <mxGeometry x="375" y="920" width="50" height="20" as="geometry"/>
                </mxCell>
                <mxCell id="37" value="Privates" style="text;html=1;strokeColor=none;fillColor=none;align=center;verticalAlign=middle;whiteSpace=wrap;rounded=0;sketch=0;fontColor=#393C56;" vertex="1" parent="1">
                    <mxGeometry x="440" y="920" width="60" height="20" as="geometry"/>
                </mxCell>
                <mxCell id="38" value="" style="outlineConnect=0;dashed=0;verticalLabelPosition=bottom;verticalAlign=top;align=center;html=1;shape=mxgraph.aws3.classic_load_balancer;fillColor=#F58534;gradientColor=none;rounded=0;sketch=0;fontColor=#393C56;strokeColor=#999999;" vertex="1" parent="1">
                    <mxGeometry x="278" y="960" width="59" height="60" as="geometry"/>
                </mxCell>
                <mxCell id="39" value="" style="endArrow=classic;html=1;fontColor=#393C56;strokeColor=#E07A5F;fillColor=#F2CC8F;exitX=0.5;exitY=1;exitDx=0;exitDy=0;exitPerimeter=0;entryX=0.5;entryY=0.095;entryDx=0;entryDy=0;entryPerimeter=0;" edge="1" parent="1" source="38" target="11">
                    <mxGeometry width="50" height="50" relative="1" as="geometry">
                        <mxPoint x="90" y="1010" as="sourcePoint"/>
                        <mxPoint x="140" y="960" as="targetPoint"/>
                    </mxGeometry>
                </mxCell>
                <mxCell id="40" value="RDS" style="text;html=1;strokeColor=none;fillColor=none;align=center;verticalAlign=middle;whiteSpace=wrap;rounded=0;sketch=0;fontColor=#393C56;" vertex="1" parent="1">
                    <mxGeometry x="538.5" y="1020" width="40" height="20" as="geometry"/>
                </mxCell>
                <mxCell id="41" value="SES" style="text;html=1;strokeColor=none;fillColor=none;align=center;verticalAlign=middle;whiteSpace=wrap;rounded=0;sketch=0;fontColor=#393C56;" vertex="1" parent="1">
                    <mxGeometry x="414" y="1316" width="40" height="20" as="geometry"/>
                </mxCell>
                <mxCell id="42" value="ECS" style="text;html=1;strokeColor=none;fillColor=none;align=center;verticalAlign=middle;whiteSpace=wrap;rounded=0;sketch=0;fontColor=#393C56;" vertex="1" parent="1">
                    <mxGeometry x="287.5" y="1142" width="40" height="20" as="geometry"/>
                </mxCell>
                <mxCell id="44" value="S3" style="text;html=1;strokeColor=none;fillColor=none;align=center;verticalAlign=middle;whiteSpace=wrap;rounded=0;sketch=0;fontColor=#393C56;" vertex="1" parent="1">
                    <mxGeometry x="290" y="1316" width="40" height="20" as="geometry"/>
                </mxCell>
                <mxCell id="45" value="Redis" style="text;html=1;strokeColor=none;fillColor=none;align=center;verticalAlign=middle;whiteSpace=wrap;rounded=0;sketch=0;fontColor=#393C56;" vertex="1" parent="1">
                    <mxGeometry x="538.5" y="1152" width="40" height="20" as="geometry"/>
                </mxCell>
                <mxCell id="46" value="Parameter&lt;br&gt;Store" style="text;html=1;strokeColor=none;fillColor=none;align=center;verticalAlign=middle;whiteSpace=wrap;rounded=0;sketch=0;fontColor=#393C56;" vertex="1" parent="1">
                    <mxGeometry x="71.5" y="1142" width="66" height="40" as="geometry"/>
                </mxCell>
                <mxCell id="49" value="Grafana Loki" style="text;html=1;strokeColor=none;fillColor=none;align=center;verticalAlign=middle;whiteSpace=wrap;rounded=0;sketch=0;fontColor=#393C56;" vertex="1" parent="1">
                    <mxGeometry x="74.5" y="1430" width="60" height="40" as="geometry"/>
                </mxCell>
                <mxCell id="51" value="ECR" style="text;html=1;strokeColor=none;fillColor=none;align=center;verticalAlign=middle;whiteSpace=wrap;rounded=0;sketch=0;fontColor=#393C56;" vertex="1" parent="1">
                    <mxGeometry x="84.5" y="1015" width="40" height="20" as="geometry"/>
                </mxCell>
                <mxCell id="52" value="ALB" style="text;html=1;strokeColor=none;fillColor=none;align=center;verticalAlign=middle;whiteSpace=wrap;rounded=0;sketch=0;fontColor=#393C56;" vertex="1" parent="1">
                    <mxGeometry x="287.5" y="940" width="40" height="20" as="geometry"/>
                </mxCell>
                <mxCell id="53" value="" style="endArrow=classic;html=1;fontColor=#393C56;strokeColor=#E07A5F;fillColor=#F2CC8F;exitX=0.5;exitY=1;exitDx=0;exitDy=0;" edge="1" parent="1" source="17" target="11">
                    <mxGeometry width="50" height="50" relative="1" as="geometry">
                        <mxPoint x="190" y="930" as="sourcePoint"/>
                        <mxPoint x="240" y="880" as="targetPoint"/>
                    </mxGeometry>
                </mxCell>
                <mxCell id="54" value="" style="endArrow=classic;html=1;fontColor=#393C56;strokeColor=#E07A5F;fillColor=#F2CC8F;entryX=0.5;entryY=0;entryDx=0;entryDy=0;entryPerimeter=0;exitX=0.5;exitY=1;exitDx=0;exitDy=0;" edge="1" parent="1" source="17" target="13">
                    <mxGeometry width="50" height="50" relative="1" as="geometry">
                        <mxPoint x="120" y="860" as="sourcePoint"/>
                        <mxPoint x="100" y="920" as="targetPoint"/>
                    </mxGeometry>
                </mxCell>
                <mxCell id="55" value="" style="endArrow=classic;html=1;fontColor=#393C56;strokeColor=#E07A5F;fillColor=#F2CC8F;exitX=1;exitY=1;exitDx=0;exitDy=0;exitPerimeter=0;" edge="1" parent="1" source="13" target="11">
                    <mxGeometry width="50" height="50" relative="1" as="geometry">
                        <mxPoint x="210" y="1090" as="sourcePoint"/>
                        <mxPoint x="260" y="1040" as="targetPoint"/>
                    </mxGeometry>
                </mxCell>
                <mxCell id="60" value="" style="endArrow=classic;html=1;fontColor=#393C56;strokeColor=#E07A5F;fillColor=#F2CC8F;entryX=0.5;entryY=0;entryDx=0;entryDy=0;" edge="1" parent="1" target="17">
                    <mxGeometry width="50" height="50" relative="1" as="geometry">
                        <mxPoint x="105" y="640" as="sourcePoint"/>
                        <mxPoint x="220" y="660" as="targetPoint"/>
                    </mxGeometry>
                </mxCell>
                <mxCell id="61" value="" style="endArrow=classic;html=1;fontColor=#393C56;strokeColor=#E07A5F;fillColor=#F2CC8F;entryX=0.5;entryY=0;entryDx=0;entryDy=0;" edge="1" parent="1">
                    <mxGeometry width="50" height="50" relative="1" as="geometry">
                        <mxPoint x="307" y="760" as="sourcePoint"/>
                        <mxPoint x="307" y="940" as="targetPoint"/>
                    </mxGeometry>
                </mxCell>
                <mxCell id="63" value="push" style="text;html=1;strokeColor=none;fillColor=none;align=center;verticalAlign=middle;whiteSpace=wrap;rounded=0;sketch=0;fontColor=#393C56;" vertex="1" parent="1">
                    <mxGeometry x="110" y="690" width="40" height="20" as="geometry"/>
                </mxCell>
            </root>
        </mxGraphModel>
    </diagram>
</mxfile>